<svg width="40" height="41" viewBox="0 0 40 41" fill="none" xmlns="http://www.w3.org/2000/svg">
<path fill-rule="evenodd" clip-rule="evenodd" d="M5.48471 25.3246L1.46508 21.3101C0.770343 20.6158 0.769392 19.4834 1.46363 18.7887L5.47798 14.7693C5.82533 14.4219 5.99992 13.999 5.99945 13.5084L5.99608 7.83587C5.99559 6.85367 6.79625 6.05255 7.77798 6.05211L13.4505 6.04858C13.9416 6.04859 14.364 5.87308 14.7109 5.52573L18.7257 1.50629C19.4195 0.811587 20.5523 0.810696 21.2471 1.50498L25.2671 5.52002C25.6145 5.86693 26.037 6.04154 26.5281 6.04155L32.2116 6.03848C33.1938 6.03804 33.9954 6.83829 33.9959 7.82048L33.9993 13.504C33.9993 13.9951 34.1748 14.4176 34.5222 14.7645L38.5349 18.7726C39.2296 19.4665 39.2306 20.5993 38.5364 21.294L34.5285 25.3065C34.1816 25.6539 34.007 26.0768 34.007 26.5674L34.0104 32.2478C34.0113 33.2295 33.2107 34.0311 32.2285 34.0315L26.5486 34.0346C26.0575 34.035 25.6351 34.2101 25.2882 34.5579L21.2743 38.5764C20.58 39.2711 19.4477 39.2715 18.7529 38.5777L14.7338 34.5636C14.3864 34.2167 13.9639 34.0416 13.4728 34.0421L7.79484 34.0452C6.81311 34.0456 6.01149 33.2449 6.011 32.2631L6.00763 26.5851C6.00715 26.094 5.83208 25.672 5.48471 25.3246Z" fill="#4C00C9"/>
<path d="M32.2285 34.0315L32.229 34.975H32.2294L32.2285 34.0315ZM6.15131 24.6571L2.13169 20.6425L0.798485 21.9776L4.81765 25.9922L6.15131 24.6571ZM2.13169 20.6425C1.80551 20.3168 1.8055 19.7815 2.1312 19.4553L0.79608 18.1216C-0.266243 19.1848 -0.265277 20.9152 0.798485 21.9776L2.13169 20.6425ZM2.1312 19.4553L6.14554 15.4359L4.81043 14.1022L0.79608 18.1216L2.1312 19.4553ZM6.14554 15.4359C6.66979 14.9116 6.94343 14.2487 6.94295 13.5075L5.05596 13.5088C5.05643 13.7493 4.98088 13.9322 4.81043 14.1022L6.14554 15.4359ZM6.94295 13.5075L6.93957 7.83543L5.05259 7.8363L5.05596 13.5088L6.94295 13.5075ZM6.93957 7.83543C6.93956 7.37427 7.31778 6.99559 7.77893 6.99514L7.77749 5.10815C6.27472 5.10903 5.05162 6.33306 5.05259 7.8363L6.93957 7.83543ZM7.77893 6.99514L13.4509 6.99207L13.45 5.10507L7.77749 5.10815L7.77893 6.99514ZM13.4509 6.99207C14.1922 6.99163 14.8547 6.71707 15.3785 6.19236L14.0433 4.85908C13.8733 5.02953 13.6909 5.10508 13.45 5.10507L13.4509 6.99207ZM15.3785 6.19236L19.3933 2.17293L18.0581 0.839646L14.0433 4.85908L15.3785 6.19236ZM19.3933 2.17293C19.719 1.84676 20.2543 1.84678 20.5805 2.17249L21.9141 0.837445C20.8504 -0.224939 19.1205 -0.224064 18.0581 0.839646L19.3933 2.17293ZM20.5805 2.17249L24.6005 6.18753L25.9337 4.85248L21.9141 0.837445L20.5805 2.17249ZM24.6005 6.18753C25.1248 6.71135 25.7873 6.98548 26.5286 6.98504L26.5276 5.09805C26.2866 5.09804 26.1042 5.02248 25.9337 4.85248L24.6005 6.18753ZM26.5286 6.98504L32.2125 6.98197L32.2111 5.09497L26.5276 5.09805L26.5286 6.98504ZM32.2125 6.98197C32.6732 6.98152 33.0519 7.35976 33.0524 7.82091L34.9394 7.81958C34.9384 6.3168 33.7143 5.09409 32.2111 5.09497L32.2125 6.98197ZM33.0524 7.82091L33.0558 13.5045L34.9428 13.5036L34.9394 7.81958L33.0524 7.82091ZM33.0558 13.5045C33.0563 14.2457 33.3309 14.9082 33.8556 15.432L35.1888 14.097C35.0183 13.9265 34.9428 13.7441 34.9428 13.5036L33.0558 13.5045ZM33.8556 15.432L37.8683 19.4402L39.2015 18.1051L35.1888 14.097L33.8556 15.432ZM37.8683 19.4402C38.1945 19.7659 38.1945 20.3012 37.8688 20.6274L39.2039 21.9611C40.2662 20.8974 40.2653 19.167 39.2015 18.1051L37.8683 19.4402ZM37.8688 20.6274L33.8609 24.6399L35.196 25.9732L39.2039 21.9606L37.8688 20.6274ZM33.8609 24.6399C33.3371 25.1641 33.063 25.8271 33.0635 26.5683L34.9505 26.567C34.9505 26.3265 35.026 26.1436 35.196 25.9732L33.8609 24.6399ZM33.0635 26.5683L33.0669 32.2482L34.9539 32.2469L34.9505 26.567L33.0635 26.5683ZM33.0669 32.2482C33.0673 32.7089 32.6891 33.088 32.228 33.088L32.2294 34.975C33.7322 34.9741 34.9548 33.7501 34.9539 32.2469L33.0669 32.2482ZM32.228 33.088L26.5481 33.0911L26.5491 34.9781L32.229 34.975L32.228 33.088ZM26.5481 33.0911C25.8069 33.0915 25.1444 33.3665 24.6206 33.8908L25.9557 35.2245C26.1257 35.0541 26.3086 34.9781 26.5491 34.9781L26.5481 33.0911ZM24.6206 33.8908L20.6067 37.9093L21.9419 39.243L25.9557 35.2245L24.6206 33.8908ZM20.6067 37.9093C20.281 38.2355 19.7457 38.2359 19.4195 37.9102L18.0859 39.2453C19.1492 40.3076 20.8795 40.3063 21.9419 39.243L20.6067 37.9093ZM19.4195 37.9102L15.4004 33.8961L14.0672 35.2311L18.0859 39.2453L19.4195 37.9102ZM15.4004 33.8961C14.8761 33.3723 14.2136 33.0981 13.4724 33.0986L13.4733 34.9856C13.7143 34.9851 13.8967 35.0607 14.0672 35.2311L15.4004 33.8961ZM13.4724 33.0986L7.79436 33.1016L7.79579 34.9886L13.4733 34.9856L13.4724 33.0986ZM7.79436 33.1016C7.33367 33.1016 6.95451 32.7234 6.9545 32.2622L5.06751 32.2636C5.06847 33.7664 6.29256 34.9895 7.79579 34.9886L7.79436 33.1016ZM6.9545 32.2622L6.95112 26.5847L5.06414 26.5855L5.06751 32.2636L6.9545 32.2622ZM6.95112 26.5847C6.95064 25.8434 6.67559 25.1809 6.15131 24.6571L4.81765 25.9922C4.98811 26.1626 5.06413 26.3451 5.06414 26.5855L6.95112 26.5847Z" fill="#4C00C9"/>
<path d="M28.6641 14.3333L20.5492 23.9029C18.932 25.81 16.31 25.81 14.6928 23.9029L12.6641 21.5105" stroke="white" stroke-width="1.5" stroke-linecap="round" stroke-linejoin="round"/>
</svg>
