<svg viewBox="0 0 118 32" fill="none" xmlns="http://www.w3.org/2000/svg"><path d="M32 0H0v32h32V0Z" fill="#FF0032"/><path d="M21 3v1.5h3V10h2V4.5h3V3h-8ZM9.983 3.004 7.725 7.693l-2.259-4.69H3V10h1.729V5.02l2.208 4.286h1.575L10.72 5.02V10h1.73V3.004H9.982ZM27.268 26.638a1.178 1.178 0 0 1-.339.69 1.452 1.452 0 0 1-.693.35 5.499 5.499 0 0 1-1.144.103c-.458 0-.864-.06-1.206-.176a1.5 1.5 0 0 1-.78-.589c-.188-.278-.282-.681-.282-1.197v-.725c0-.516.095-.919.281-1.197.186-.277.449-.475.78-.589a3.75 3.75 0 0 1 1.207-.176 5.5 5.5 0 0 1 1.144.103c.288.067.521.184.693.35.182.174.295.407.339.69h1.73c-.048-.585-.247-1.083-.593-1.482-.317-.365-.754-.632-1.3-.794-.53-.157-1.226-.24-2.013-.24-.829 0-1.548.119-2.138.354a2.728 2.728 0 0 0-1.382 1.182c-.305.523-.465 1.222-.476 2.079v.079l.092.003-.092.004v.079c.011.856.171 1.555.476 2.079.319.546.784.944 1.382 1.182.59.235 1.31.354 2.138.354.787 0 1.483-.083 2.013-.24.546-.163.983-.43 1.3-.794.346-.399.545-.897.592-1.482h-1.73Z" fill="#fff"/><path d="M59.13 4c2.806 0 4.858.684 6.157 2.052 1.322 1.345 1.983 3.247 1.983 5.705 0 2.48-.661 4.405-1.983 5.773-1.299 1.369-3.35 2.053-6.157 2.053H48.87V28H44V4h15.13Zm3.235 7.304c0-1.043-.301-1.89-.904-2.539-.603-.65-1.6-.974-2.991-.974h-9.6v8h9.6c1.39 0 2.388-.313 2.99-.939.604-.65.905-1.495.905-2.539v-1.009ZM83.34 4l10.574 24h-5.078l-2.678-6.157H73.323L70.645 28h-4.592L76.662 4h6.678Zm-8.452 14.26h9.704l-4.87-11.095-4.834 11.096ZM89.692 4h5.565l8.557 10.574L111.849 4h4.939L106.04 18.017V28h-4.87v-9.983L89.692 4Z" fill="#000"/></svg>