<svg width="32" height="32" viewBox="0 0 32 32" fill="none" xmlns="http://www.w3.org/2000/svg">
<g clip-path="url(#clip0_940_8557)">
<rect x="1.5" y="1.5" width="12" height="12" rx="2.5" stroke="black" stroke-width="3"/>
<rect x="6" y="6" width="3" height="3" rx="1" fill="black"/>
<rect x="7" y="26" width="3" height="3" fill="black"/>
<rect x="22" y="3" width="3.42857" height="3.42857" fill="black"/>
<rect x="18" width="4" height="3" fill="black"/>
<rect x="7" y="19" width="6" height="3" fill="black"/>
<rect x="19" y="10" width="6" height="3" fill="black"/>
<rect x="10" y="29" width="3" height="3" fill="black"/>
<path d="M7 30.5V30.5C3.96243 30.5 1.5 28.0376 1.5 25V19" stroke="black" stroke-width="3"/>
<rect x="18.5" y="18.5" width="12" height="12" rx="2.5" stroke="black" stroke-width="3"/>
<rect x="23" y="23" width="3" height="3" rx="1" fill="black"/>
<path d="M25.5 1.5V1.5C28.2614 1.5 30.5 3.73858 30.5 6.5V13" stroke="black" stroke-width="3"/>
</g>
<defs>
<clipPath id="clip0_940_8557">
<rect width="32" height="32" fill="white"/>
</clipPath>
</defs>
</svg>
