<svg width="1440" height="245" viewBox="0 0 1440 245" fill="none" xmlns="http://www.w3.org/2000/svg">
<path d="M675.177 21H672.757V6.6H675.177V12.66H681.987V6.6H684.407V21H681.987V14.92H675.177V21ZM693.301 21.3C688.991 21.3 686.411 18.27 686.411 13.8C686.411 9.33 688.991 6.3 693.301 6.3C697.621 6.3 700.201 9.33 700.201 13.8C700.201 18.27 697.621 21.3 693.301 21.3ZM693.301 19.03C696.201 19.03 697.651 16.95 697.651 13.8C697.651 10.65 696.201 8.57 693.301 8.57C690.401 8.57 688.971 10.65 688.961 13.8C688.951 16.95 690.401 19.03 693.301 19.03ZM707.741 21H702.191V6.6H707.591C710.261 6.6 712.371 7.84 712.371 10.38C712.371 12.24 711.241 13.23 710.301 13.52C711.441 13.73 712.841 14.86 712.841 16.99C712.841 19.8 710.551 21 707.741 21ZM707.641 8.86H704.611V12.47H707.741C708.961 12.47 709.931 12.02 709.931 10.65C709.931 9.28 708.941 8.86 707.641 8.86ZM704.611 18.74H707.741C709.141 18.74 710.421 18.39 710.421 16.71C710.421 15.07 709.131 14.69 707.821 14.69H704.611V18.74ZM726.407 21H723.987V10.76L717.277 21H714.847V6.6H717.277V16.84L723.987 6.6H726.407V21ZM731.623 21H729.203V6.6H731.623V12.66H738.433V6.6H740.853V21H738.433V14.92H731.623V21ZM743.656 21V6.6H746.086V13.3L751.836 6.6H754.796L748.606 13.66L755.216 21H752.156L746.086 14.27V21H743.656ZM763.545 6.59L768.305 20.99H765.765L764.745 17.87H759.125L758.105 20.99H755.565L760.335 6.59H763.545ZM759.855 15.62H764.015L761.935 9.23L759.855 15.62Z" fill="white"/>
<path d="M340.704 141.856C328.352 141.856 319.008 134.432 316 123.04L325.408 120.8C326.944 127.584 333.088 132.832 340.64 132.832C345.376 132.832 350.88 130.72 353.696 125.408C355.552 121.76 355.552 117.664 355.552 111.648V47.84H364.96V111.648C364.96 119.008 364.832 124.704 361.952 130.144C357.92 137.952 350.368 141.856 340.704 141.856ZM416.591 140H384.335V47.84H415.631C433.359 47.84 445.903 55.264 445.903 71.52C445.903 83.168 439.055 89.824 431.439 92.384C439.695 93.984 448.847 101.6 448.847 114.656C448.847 132.64 435.215 140 416.591 140ZM415.759 56.864H393.743V88.096H418.383C428.495 88.096 436.239 83.04 436.239 72.096C436.239 61.088 427.919 56.864 415.759 56.864ZM393.743 130.976H416.591C429.711 130.976 439.183 127.072 439.183 113.824C439.183 101.792 429.519 96.928 418.575 96.928H393.743V130.976ZM516.049 140H462.865V47.84H472.273V130.976H516.049V140ZM549.986 140H538.53L570.466 93.344L539.362 47.84H550.754L576.034 85.472L601.314 47.84H612.77L581.666 93.344L613.538 140H602.146L576.034 101.28L549.986 140ZM659.296 140H649.888V56.864H621.28V47.84H687.456V56.864H659.296V140ZM753.265 140L730.161 104.992H707.057V140H697.585V47.84H731.761C750.961 47.84 762.161 58.848 762.161 76.448C762.161 91.04 754.353 101.152 740.657 104.096L764.273 140H753.265ZM707.057 56.864V96.032H731.697C744.753 96.032 752.497 88.672 752.497 76.448C752.497 64.16 744.753 56.864 731.697 56.864H707.057ZM835.999 140H778.335V47.84H835.999V56.864H787.743V88.736H828.319V97.76H787.743V130.976H835.999V140ZM860.807 140H851.335V47.84H860.615L894.087 119.008L927.367 47.84H936.775V139.936H927.367V68L898.503 129.952H889.671L860.807 68V140ZM1012.37 140H954.71V47.84H1012.37V56.864H964.118V88.736H1004.69V97.76H964.118V130.976H1012.37V140ZM1108.57 140H1099.1V121.76H1050.78V112.736L1082.33 47.84H1092.7L1061.14 112.736H1099.1V80.48H1108.57V112.736H1117.59V121.76H1108.57V140Z" fill="white"/>
<path d="M664.5 214.2C664.5 207.479 664.5 204.119 665.808 201.552C666.958 199.294 668.794 197.458 671.052 196.308C673.619 195 676.979 195 683.7 195H756.3C763.021 195 766.381 195 768.948 196.308C771.206 197.458 773.042 199.294 774.192 201.552C775.5 204.119 775.5 207.479 775.5 214.2V225.8C775.5 232.521 775.5 235.881 774.192 238.448C773.042 240.706 771.206 242.542 768.948 243.692C766.381 245 763.021 245 756.3 245H683.7C676.979 245 673.619 245 671.052 243.692C668.794 242.542 666.958 240.706 665.808 238.448C664.5 235.881 664.5 232.521 664.5 225.8V214.2Z" fill="white"/>
<path d="M689.62 226V214.48H691.3V219.88L696.124 214.48H698.204L693.108 220.104L698.58 226H696.436L691.3 220.48V226H689.62ZM708.17 214.48L702.698 226H700.882L702.674 222.224L698.794 214.48H700.634L703.53 220.416L706.346 214.48H708.17ZM711.121 226H709.433V214.48H718.289V226H716.601V216.056H711.121V226ZM729.59 226H727.902V217.384L722.206 226H720.526V214.48H722.206V223.096L727.902 214.48H729.59V226ZM736.223 226H734.535V216.056H731.063V214.48H739.671V216.056H736.223V226ZM743.151 214.48V218.616H745.919C748.527 218.616 749.911 220.016 749.911 222.312C749.911 224.608 748.535 226 745.919 226H741.463V214.48H743.151ZM743.151 224.424H745.911C747.383 224.424 748.207 223.656 748.207 222.312C748.207 220.96 747.383 220.2 745.911 220.2H743.151V224.424Z" fill="#100030"/>
</svg>
