<svg width="343" height="130" viewBox="0 0 343 130" fill="none" xmlns="http://www.w3.org/2000/svg">
<path d="M135.642 17H133.706V5.48H135.642V10.328H141.09V5.48H143.026V17H141.09V12.136H135.642V17ZM150.14 17.24C146.692 17.24 144.628 14.816 144.628 11.24C144.628 7.664 146.692 5.24 150.14 5.24C153.596 5.24 155.66 7.664 155.66 11.24C155.66 14.816 153.596 17.24 150.14 17.24ZM150.14 15.424C152.46 15.424 153.62 13.76 153.62 11.24C153.62 8.72 152.46 7.056 150.14 7.056C147.82 7.056 146.676 8.72 146.668 11.24C146.66 13.76 147.82 15.424 150.14 15.424ZM161.693 17H157.253V5.48H161.573C163.709 5.48 165.397 6.472 165.397 8.504C165.397 9.992 164.493 10.784 163.741 11.016C164.653 11.184 165.773 12.088 165.773 13.792C165.773 16.04 163.941 17 161.693 17ZM161.613 7.288H159.189V10.176H161.693C162.669 10.176 163.445 9.816 163.445 8.72C163.445 7.624 162.653 7.288 161.613 7.288ZM159.189 15.192H161.693C162.813 15.192 163.837 14.912 163.837 13.568C163.837 12.256 162.805 11.952 161.757 11.952H159.189V15.192ZM176.626 17H174.69V8.808L169.322 17H167.378V5.48H169.322V13.672L174.69 5.48H176.626V17ZM180.798 17H178.862V5.48H180.798V10.328H186.246V5.48H188.182V17H186.246V12.136H180.798V17ZM190.425 17V5.48H192.369V10.84L196.969 5.48H199.337L194.385 11.128L199.673 17H197.225L192.369 11.616V17H190.425ZM206.336 5.472L210.144 16.992H208.112L207.296 14.496H202.8L201.984 16.992H199.952L203.768 5.472H206.336ZM203.384 12.696H206.712L205.048 7.584L203.384 12.696Z" fill="white"/>
<path d="M23.3375 66.725C18.5125 66.725 14.8625 63.825 13.6875 59.375L17.3625 58.5C17.9625 61.15 20.3625 63.2 23.3125 63.2C25.1625 63.2 27.3125 62.375 28.4125 60.3C29.1375 58.875 29.1375 57.275 29.1375 54.925V30H32.8125V54.925C32.8125 57.8 32.7625 60.025 31.6375 62.15C30.0625 65.2 27.1125 66.725 23.3375 66.725ZM52.9809 66H40.3809V30H52.6059C59.5309 30 64.4309 32.9 64.4309 39.25C64.4309 43.8 61.7559 46.4 58.7809 47.4C62.0059 48.025 65.5809 51 65.5809 56.1C65.5809 63.125 60.2559 66 52.9809 66ZM52.6559 33.525H44.0559V45.725H53.6809C57.6309 45.725 60.6559 43.75 60.6559 39.475C60.6559 35.175 57.4059 33.525 52.6559 33.525ZM44.0559 62.475H52.9809C58.1059 62.475 61.8059 60.95 61.8059 55.775C61.8059 51.075 58.0309 49.175 53.7559 49.175H44.0559V62.475ZM91.8316 66H71.0566V30H74.7316V62.475H91.8316V66ZM105.088 66H100.613L113.088 47.775L100.938 30H105.388L115.263 44.7L125.138 30H129.613L117.463 47.775L129.913 66H125.463L115.263 50.875L105.088 66ZM147.788 66H144.113V33.525H132.938V30H158.788V33.525H147.788V66ZM184.494 66L175.469 52.325H166.444V66H162.744V30H176.094C183.594 30 187.969 34.3 187.969 41.175C187.969 46.875 184.919 50.825 179.569 51.975L188.794 66H184.494ZM166.444 33.525V48.825H176.069C181.169 48.825 184.194 45.95 184.194 41.175C184.194 36.375 181.169 33.525 176.069 33.525H166.444ZM216.812 66H194.287V30H216.812V33.525H197.962V45.975H213.812V49.5H197.962V62.475H216.812V66ZM226.503 66H222.803V30H226.428L239.503 57.8L252.503 30H256.178V65.975H252.503V37.875L241.228 62.075H237.778L226.503 37.875V66ZM285.709 66H263.184V30H285.709V33.525H266.859V45.975H282.709V49.5H266.859V62.475H285.709V66ZM323.284 66H319.584V58.875H300.709V55.35L313.034 30H317.084L304.759 55.35H319.584V42.75H323.284V55.35H326.809V58.875H323.284V66Z" fill="white"/>
<path d="M128 109.2C128 102.479 128 99.1191 129.308 96.5521C130.458 94.2942 132.294 92.4584 134.552 91.3079C137.119 90 140.479 90 147.2 90H195.8C202.521 90 205.881 90 208.448 91.3079C210.706 92.4584 212.542 94.2942 213.692 96.5521C215 99.1191 215 102.479 215 109.2V110.8C215 117.521 215 120.881 213.692 123.448C212.542 125.706 210.706 127.542 208.448 128.692C205.881 130 202.521 130 195.8 130H147.2C140.479 130 137.119 130 134.552 128.692C132.294 127.542 130.458 125.706 129.308 123.448C128 120.881 128 117.521 128 110.8V109.2Z" fill="white"/>
<path d="M144.98 115V104.92H146.45V109.645L150.671 104.92H152.491L148.032 109.841L152.82 115H150.944L146.45 110.17V115H144.98ZM161.211 104.92L156.423 115H154.834L156.402 111.696L153.007 104.92H154.617L157.151 110.114L159.615 104.92H161.211ZM163.793 115H162.316V104.92H170.065V115H168.588V106.299H163.793V115ZM179.954 115H178.477V107.461L173.493 115H172.023V104.92H173.493V112.459L178.477 104.92H179.954V115ZM185.758 115H184.281V106.299H181.243V104.92H188.775V106.299H185.758V115ZM191.82 104.92V108.539H194.242C196.524 108.539 197.735 109.764 197.735 111.773C197.735 113.782 196.531 115 194.242 115H190.343V104.92H191.82ZM191.82 113.621H194.235C195.523 113.621 196.244 112.949 196.244 111.773C196.244 110.59 195.523 109.925 194.235 109.925H191.82V113.621Z" fill="#100030"/>
</svg>
