<svg width="64" height="64" viewBox="0 0 64 64" fill="none" xmlns="http://www.w3.org/2000/svg">
<rect width="64" height="64" rx="16" fill="#4C00C9"/>
<path d="M19.6512 28.1298L23.1213 31.6L24.6875 30.0337L21.2173 26.5635L19.6512 28.1298ZM23.1213 31.6C23.3424 31.821 23.3424 32.1795 23.1213 32.4005L24.6875 33.9667C25.7736 32.8806 25.7735 31.1198 24.6875 30.0337L23.1213 31.6ZM23.1213 32.4005L19.6514 35.8707L21.2176 37.4369L24.6875 33.9667L23.1213 32.4005ZM19.6514 35.8707C19.4304 36.0917 19.0719 36.0918 18.8509 35.8707L17.2847 37.437C18.3708 38.523 20.1315 38.523 21.2176 37.4369L19.6514 35.8707ZM18.8509 35.8707L15.3807 32.4005L13.8146 33.9668L17.2847 37.437L18.8509 35.8707ZM15.3807 32.4005C15.1596 32.1794 15.1597 31.821 15.3807 31.6L13.8145 30.0338C12.7285 31.1199 12.7285 32.8807 13.8146 33.9668L15.3807 32.4005ZM15.3807 31.6L18.8506 28.1298L17.2844 26.5636L13.8145 30.0338L15.3807 31.6ZM18.8506 28.1298C19.0717 27.9087 19.4301 27.9087 19.6512 28.1298L21.2173 26.5635C20.1313 25.4775 18.3705 25.4775 17.2844 26.5636L18.8506 28.1298Z" fill="#FFB119"/>
<path d="M28.1295 44.3486L31.5995 40.8783L30.0333 39.3121L26.5633 42.7824L28.1295 44.3486ZM31.5995 40.8783C31.8206 40.6572 32.179 40.6572 32.4 40.8782L33.9662 39.312C32.8801 38.2259 31.1193 38.226 30.0333 39.3121L31.5995 40.8783ZM32.4 40.8782L35.8701 44.3484L37.4362 42.7821L33.9662 39.312L32.4 40.8782ZM35.8701 44.3484C36.0911 44.5694 36.0911 44.9278 35.8701 45.1489L37.4363 46.7151C38.5223 45.629 38.5223 43.8682 37.4362 42.7821L35.8701 44.3484ZM35.8701 45.1489L32.4 48.6192L33.9662 50.1854L37.4363 46.7151L35.8701 45.1489ZM32.4 48.6192C32.1789 48.8403 31.8205 48.8403 31.5995 48.6192L30.0333 50.1855C31.1194 51.2716 32.8802 51.2715 33.9662 50.1854L32.4 48.6192ZM31.5995 48.6192L28.1294 45.1491L26.5633 46.7154L30.0333 50.1855L31.5995 48.6192ZM28.1294 45.1491C27.9084 44.9281 27.9084 44.5697 28.1295 44.3486L26.5633 42.7824C25.4773 43.8684 25.4772 45.6293 26.5633 46.7154L28.1294 45.1491Z" fill="#FFB119"/>
<path d="M20.5313 19.9662H25.4387V17.7512H20.5313V19.9662ZM25.4387 19.9662C25.7513 19.9662 26.0048 20.2196 26.0048 20.5322H28.2197C28.2197 18.9963 26.9745 17.7512 25.4387 17.7512V19.9662ZM26.0048 20.5322V25.4397H28.2197V20.5322H26.0048ZM26.0048 25.4397C26.0048 25.7523 25.7513 26.0058 25.4387 26.0058V28.2208C26.9745 28.2208 28.2197 26.9757 28.2197 25.4397H26.0048ZM25.4387 26.0058H20.5313V28.2208H25.4387V26.0058ZM20.5313 26.0058C20.2186 26.0058 19.9652 25.7523 19.9652 25.4397H17.7503C17.7503 26.9757 18.9954 28.2208 20.5313 28.2208V26.0058ZM19.9652 25.4397V20.5322H17.7503V25.4397H19.9652ZM19.9652 20.5322C19.9652 20.2196 20.2186 19.9662 20.5313 19.9662V17.7512C18.9954 17.7512 17.7503 18.9963 17.7503 20.5322H19.9652Z" fill="#FFB119"/>
<path d="M44.3488 35.8702L40.8787 32.4L39.3125 33.9663L42.7827 37.4365L44.3488 35.8702ZM40.8787 32.4C40.6576 32.179 40.6576 31.8205 40.8787 31.5995L39.3125 30.0333C38.2264 31.1194 38.2265 32.8802 39.3125 33.9663L40.8787 32.4ZM40.8787 31.5995L44.3486 28.1293L42.7824 26.5631L39.3125 30.0333L40.8787 31.5995ZM44.3486 28.1293C44.5696 27.9083 44.928 27.9082 45.1491 28.1293L46.7153 26.563C45.6292 25.477 43.8685 25.477 42.7824 26.5631L44.3486 28.1293ZM45.1491 28.1293L48.6193 31.5995L50.1854 30.0332L46.7153 26.563L45.1491 28.1293ZM48.6193 31.5995C48.8404 31.8206 48.8403 32.179 48.6193 32.4L50.1855 33.9662C51.2715 32.8801 51.2715 31.1193 50.1854 30.0332L48.6193 31.5995ZM48.6193 32.4L45.1494 35.8702L46.7156 37.4364L50.1855 33.9662L48.6193 32.4ZM45.1494 35.8702C44.9283 36.0913 44.5699 36.0913 44.3488 35.8702L42.7827 37.4365C43.8687 38.5225 45.6295 38.5226 46.7156 37.4364L45.1494 35.8702Z" fill="#FFB119"/>
<path d="M37.9951 20.5318V25.4395H35.7802V20.5318H37.9951ZM37.9951 25.4395C37.9951 25.7521 38.2486 26.0056 38.5612 26.0056V28.2206C37.0253 28.2206 35.7802 26.9754 35.7802 25.4395H37.9951ZM38.5612 26.0056H43.4685V28.2206H38.5612V26.0056ZM43.4685 26.0056C43.7811 26.0056 44.0345 25.7521 44.0345 25.4395H46.2494C46.2494 26.9754 45.0044 28.2206 43.4685 28.2206V26.0056ZM44.0345 25.4395V20.5318H46.2494V25.4395H44.0345ZM44.0345 20.5318C44.0345 20.2191 43.7811 19.9657 43.4685 19.9657V17.7507C45.0044 17.7507 46.2494 18.9959 46.2494 20.5318H44.0345ZM43.4685 19.9657H38.5612V17.7507H43.4685V19.9657ZM38.5612 19.9657C38.2486 19.9657 37.9951 20.2191 37.9951 20.5318H35.7802C35.7802 18.9959 37.0253 17.7507 38.5612 17.7507V19.9657Z" fill="#FFB119"/>
<path d="M35.869 19.6514L32.3989 23.1217L33.9651 24.6879L37.4352 21.2176L35.869 19.6514ZM32.3989 23.1217C32.1779 23.3428 31.8195 23.3428 31.5984 23.1218L30.0323 24.688C31.1183 25.7741 32.8791 25.774 33.9651 24.6879L32.3989 23.1217ZM31.5984 23.1218L28.1284 19.6516L26.5622 21.2179L30.0323 24.688L31.5984 23.1218ZM28.1284 19.6516C27.9073 19.4306 27.9073 19.0722 28.1284 18.8511L26.5622 17.2849C25.4762 18.371 25.4762 20.1318 26.5622 21.2179L28.1284 19.6516ZM28.1284 18.8511L31.5984 15.3808L30.0322 13.8146L26.5622 17.2849L28.1284 18.8511ZM31.5984 15.3808C31.8195 15.1597 32.1779 15.1597 32.3989 15.3808L33.9651 13.8145C32.879 12.7284 31.1182 12.7285 30.0322 13.8146L31.5984 15.3808ZM32.3989 15.3808L35.869 18.8509L37.4352 17.2846L33.9651 13.8145L32.3989 15.3808ZM35.869 18.8509C36.09 19.0719 36.0901 19.4303 35.869 19.6514L37.4352 21.2176C38.5212 20.1316 38.5212 18.3707 37.4352 17.2846L35.869 18.8509Z" fill="#FFB119"/>
<path d="M38.5601 37.9972H43.4675V35.7821H38.5601V37.9972ZM43.4675 37.9972C43.7802 37.9972 44.0336 38.2506 44.0336 38.5632H46.2485C46.2485 37.0273 45.0034 35.7821 43.4675 35.7821V37.9972ZM44.0336 38.5632V43.4707H46.2485V38.5632H44.0336ZM44.0336 43.4707C44.0336 43.7833 43.7802 44.0368 43.4675 44.0368V46.2518C45.0034 46.2518 46.2485 45.0067 46.2485 43.4707H44.0336ZM43.4675 44.0368H38.5601V46.2518H43.4675V44.0368ZM38.5601 44.0368C38.2474 44.0368 37.994 43.7833 37.994 43.4707H35.7791C35.7791 45.0067 37.0242 46.2518 38.5601 46.2518V44.0368ZM37.994 43.4707V38.5632H35.7791V43.4707H37.994ZM37.994 38.5632C37.994 38.2506 38.2474 37.9972 38.5601 37.9972V35.7821C37.0242 35.7821 35.7791 37.0273 35.7791 38.5632H37.994Z" fill="#FFB119"/>
<path d="M20.5191 37.9971H25.4265V35.7822H20.5191V37.9971ZM25.4265 37.9971C25.7392 37.9971 25.9926 38.2506 25.9926 38.5632H28.2075C28.2075 37.0272 26.9624 35.7822 25.4265 35.7822V37.9971ZM25.9926 38.5632V43.4707H28.2075V38.5632H25.9926ZM25.9926 43.4707C25.9926 43.7833 25.7392 44.0368 25.4265 44.0368V46.2518C26.9624 46.2518 28.2075 45.0067 28.2075 43.4707H25.9926ZM25.4265 44.0368H20.5191V46.2518H25.4265V44.0368ZM20.5191 44.0368C20.2064 44.0368 19.953 43.7833 19.953 43.4707H17.7381C17.7381 45.0067 18.9832 46.2518 20.5191 46.2518V44.0368ZM19.953 43.4707V38.5632H17.7381V43.4707H19.953ZM19.953 38.5632C19.953 38.2506 20.2064 37.9971 20.5191 37.9971V35.7822C18.9832 35.7822 17.7381 37.0272 17.7381 38.5632H19.953Z" fill="#FFB119"/>
</svg>
