<svg width="64" height="32" viewBox="0 0 64 32" fill="none" xmlns="http://www.w3.org/2000/svg">
<path d="M24.8434 25.436H14.2656V6.56738H24.8434V25.436Z" fill="#FF5F00"/>
<path d="M14.9425 16.0001C14.9425 12.1724 16.748 8.76288 19.5597 6.5657C17.5036 4.959 14.9087 4 12.0884 4C5.41207 4 0 9.37255 0 16.0001C0 22.6275 5.41207 28 12.0884 28C14.9087 28 17.5036 27.041 19.5597 25.4343C16.748 23.2371 14.9425 19.8276 14.9425 16.0001Z" fill="#EB001B"/>
<path d="M39.1127 16.0001C39.1127 22.6275 33.7006 28 27.0243 28C24.204 28 21.6091 27.041 19.5522 25.4343C22.3647 23.2371 24.1702 19.8276 24.1702 16.0001C24.1702 12.1724 22.3647 8.76288 19.5522 6.5657C21.6091 4.959 24.204 4 27.0243 4C33.7006 4 39.1127 9.37255 39.1127 16.0001Z" fill="#F79E1B"/>
</svg>
