<svg width="29" height="28" viewBox="0 0 29 28" fill="none" xmlns="http://www.w3.org/2000/svg">
<path d="M0.5 8C0.5 3.58172 4.08172 0 8.5 0H20.5C24.9183 0 28.5 3.58172 28.5 8V20C28.5 24.4183 24.9183 28 20.5 28H8.5C4.08172 28 0.5 24.4183 0.5 20V8Z" fill="#27AAEB"/>
<path d="M20.555 8.0789L8.15371 12.9664C7.30738 13.3138 7.31227 13.7964 7.99844 14.0115L11.1823 15.0267L18.549 10.2764C18.8973 10.0598 19.2156 10.1763 18.954 10.4136L12.9855 15.9188H12.9841L12.9855 15.9195L12.7659 19.2737C13.0877 19.2737 13.2296 19.1228 13.4101 18.9448L14.9566 17.4079L18.1734 19.8363C18.7665 20.1701 19.1925 19.9985 19.3401 19.2751L21.4517 9.10402C21.6679 8.2183 21.1209 7.81726 20.555 8.0789Z" fill="white"/>
</svg>
