<svg width="29" height="28" viewBox="0 0 29 28" fill="none" xmlns="http://www.w3.org/2000/svg">
<path d="M0.5 8C0.5 3.58172 4.08172 0 8.5 0H20.5C24.9183 0 28.5 3.58172 28.5 8V20C28.5 24.4183 24.9183 28 20.5 28H8.5C4.08172 28 0.5 24.4183 0.5 20V8Z" fill="#0277FF"/>
<g clip-path="url(#clip0_780_9992)">
<path d="M20.7415 15.8383C20.7415 15.8383 22.0351 17.1159 22.3551 17.7071C22.3614 17.7156 22.3662 17.725 22.3695 17.7351C22.4999 17.9535 22.5319 18.1247 22.4679 18.2511C22.3599 18.4599 21.9943 18.5647 21.8703 18.5735H19.5839C19.4247 18.5735 19.0935 18.5319 18.6903 18.2535C18.3823 18.0383 18.0759 17.6839 17.7791 17.3375C17.3359 16.8231 16.9527 16.3767 16.5647 16.3767C16.5157 16.3766 16.4671 16.3847 16.4207 16.4007C16.1271 16.4935 15.7543 16.9119 15.7543 18.0263C15.7543 18.3751 15.4791 18.5735 15.2863 18.5735H14.2391C13.8823 18.5735 12.0247 18.4487 10.3775 16.7119C8.35915 14.5855 6.54635 10.3199 6.52875 10.2823C6.41595 10.0063 6.65275 9.85587 6.90875 9.85587H9.21755C9.52715 9.85587 9.62795 10.0431 9.69835 10.2111C9.77995 10.4039 10.0823 11.1751 10.5783 12.0415C11.3815 13.4511 11.8751 14.0247 12.2695 14.0247C12.3436 14.0249 12.4165 14.0056 12.4807 13.9687C12.9959 13.6855 12.8999 11.8455 12.8759 11.4663C12.8759 11.3927 12.8751 10.6447 12.6111 10.2831C12.4223 10.0239 12.1007 9.92307 11.9063 9.88627C11.9583 9.81107 12.0687 9.69587 12.2103 9.62787C12.5631 9.45187 13.2007 9.42627 13.8335 9.42627H14.1847C14.8711 9.43587 15.0487 9.47987 15.2983 9.54307C15.8007 9.66307 15.8103 9.98867 15.7663 11.0975C15.7535 11.4143 15.7399 11.7711 15.7399 12.1911C15.7399 12.2807 15.7359 12.3807 15.7359 12.4823C15.7207 13.0511 15.7007 13.6919 16.1023 13.9551C16.1544 13.9875 16.2146 14.0047 16.2759 14.0047C16.4151 14.0047 16.8319 14.0047 17.9623 12.0647C18.4583 11.2079 18.8423 10.1975 18.8687 10.1215C18.8911 10.0791 18.9583 9.95987 19.0399 9.91187C19.098 9.88099 19.163 9.86556 19.2287 9.86707H21.9447C22.2407 9.86707 22.4415 9.91187 22.4807 10.0239C22.5463 10.2055 22.4679 10.7599 21.2279 12.4367C21.0191 12.7159 20.8359 12.9575 20.6751 13.1687C19.5511 14.6439 19.5511 14.7183 20.7415 15.8383Z" fill="white"/>
</g>
<defs>
<clipPath id="clip0_780_9992">
<rect width="16" height="16" fill="white" transform="translate(6.5 6)"/>
</clipPath>
</defs>
</svg>
