<svg width="44" height="44" viewBox="0 0 44 44" fill="none" xmlns="http://www.w3.org/2000/svg">
  <rect width="44" height="44" fill="#FF0032" />
  <path d="M29.3136 3.35333V5.40606H33.7358V13.437L33.7367 13.5692H36.2125V5.40606H40.6346V3.35333H29.3136Z"
    fill="white" />
  <path
    d="M13.3876 3.38392L10.1533 10.0992L6.91899 3.38392H3.3877V13.5378H5.86339V6.27088L9.02482 12.4102H11.2819L14.4442 6.27088V13.5378H16.9198V3.38392H13.3876Z"
    fill="white" />
  <path
    d="M38.1527 37.2292C38.1065 37.6042 37.9356 37.9528 37.6676 38.2191C37.3891 38.4725 37.0469 38.6451 36.6777 38.7185C36.1381 38.8254 35.5888 38.8752 35.0389 38.867C34.4533 38.8775 33.87 38.7921 33.312 38.6141C32.8546 38.4656 32.4601 38.1681 32.1915 37.7691C31.9216 37.3696 31.7884 36.7927 31.7884 36.0593V35.019C31.7884 34.2801 31.9243 33.7033 32.1915 33.3037C32.4595 32.9056 32.853 32.6085 33.3092 32.4596C33.8672 32.2816 34.4506 32.1962 35.0363 32.2067C35.5862 32.1985 36.1355 32.2483 36.675 32.3552C37.0442 32.4288 37.3864 32.6014 37.6649 32.8546C37.9329 33.1209 38.1037 33.4695 38.1499 33.8445H40.6275C40.5827 33.0635 40.2848 32.3183 39.7788 31.7216C39.2798 31.1729 38.634 30.7788 37.9178 30.586C36.9785 30.3381 36.0093 30.2221 35.038 30.2412C33.851 30.2412 32.8215 30.4123 31.9782 30.7488C31.1441 31.0699 30.4453 31.6674 29.9985 32.4416C29.562 33.1912 29.3325 34.1919 29.3172 35.4185V35.531V35.5364V35.6488C29.3325 36.8755 29.562 37.8762 29.9985 38.6259C30.4453 39.4 31.1441 39.9975 31.9782 40.3186C32.8224 40.6552 33.8529 40.8261 35.038 40.8261C36.0093 40.8457 36.9786 40.7297 37.9178 40.4815C38.6343 40.2894 39.2803 39.8951 39.7788 39.3457C40.2849 38.7492 40.5829 38.0039 40.6275 37.2228L38.1527 37.2292Z"
    fill="white" />
</svg>