<svg width="24" height="24" viewBox="0 0 24 24" fill="none" xmlns="http://www.w3.org/2000/svg">
<path d="M11.375 2.22687C11.7618 2.00358 12.2382 2.00358 12.625 2.22687L20.1513 6.57217C20.538 6.79546 20.7763 7.20812 20.7763 7.6547V16.3453C20.7763 16.7919 20.538 17.2045 20.1513 17.4278L12.625 21.7731C12.2382 21.9964 11.7618 21.9964 11.375 21.7731L3.84872 17.4278C3.46197 17.2045 3.22372 16.7919 3.22372 16.3453V7.6547C3.22372 7.20812 3.46197 6.79546 3.84872 6.57217L11.375 2.22687Z" stroke="#100030" stroke-width="1.5"/>
<path d="M12 12.5508V21.9008" stroke="#100030" stroke-width="1.5" stroke-linecap="round"/>
<path d="M3.5 7.5L10.986 11.9035C11.6119 12.2717 12.3881 12.2717 13.014 11.9035L20.5 7.5" stroke="#100030" stroke-width="1.5" stroke-linecap="round"/>
<path d="M7.5 14L7.5 10" stroke="#100030" stroke-width="1.5" stroke-linecap="round"/>
</svg>
