<svg width="24" height="24" viewBox="0 0 24 24" fill="none" xmlns="http://www.w3.org/2000/svg">
<path d="M5 6.75H19M17.7273 6.75L16.9091 19.2C16.9091 19.6774 16.7367 20.1352 16.4298 20.4728C16.1229 20.8104 15.7067 21 15.2727 21H8.81818C8.38419 21 7.96798 20.8104 7.6611 20.4728C7.35422 20.1352 7.18182 19.6774 7.18182 19.2L6.27273 6.75M8.72727 6.75V4.8C8.72727 4.32261 8.89967 3.86477 9.20655 3.52721C9.51343 3.18964 9.92965 3 10.3636 3H13.6364C14.0704 3 14.4866 3.18964 14.7934 3.52721C15.1003 3.86477 15.2727 4.32261 15.2727 4.8V6.75" stroke="#100030" stroke-width="1.66667" stroke-linecap="round" stroke-linejoin="round"/>
</svg>
