<svg width="24" height="24" viewBox="0 0 24 24" fill="none" xmlns="http://www.w3.org/2000/svg">
<path d="M5.2 5H15.0026C15.9953 5 16.8 5.80472 16.8 6.7974V7.43243M14.8 17.973H9.2M14.8 17.973C14.8 19.0925 15.6954 20 16.8 20C17.9046 20 18.8 19.0925 18.8 17.973M14.8 17.973C14.8 16.8535 15.6954 15.9459 16.8 15.9459M9.2 17.973C9.2 19.0925 8.30457 20 7.2 20C6.09543 20 5.2 19.0925 5.2 17.973C5.2 16.8535 6.09543 15.9459 7.2 15.9459C8.30457 15.9459 9.2 16.8535 9.2 17.973ZM16.8 12.7027H22M16.8 12.7027V7.43243M16.8 12.7027V15.9459M22 12.7027V16.1756C22 17.1682 21.1953 17.973 20.2026 17.973H18.8M22 12.7027L20.4401 8.59212C20.1752 7.89404 19.5063 7.43243 18.7596 7.43243H16.8M2 8.64865H9.2M3.6 12.7027H12.4M18.8 17.973C18.8 16.8535 17.9046 15.9459 16.8 15.9459" stroke="#100030" stroke-width="1.34805" stroke-linecap="round" stroke-linejoin="round"/>
</svg>
