<svg width="24" height="24" viewBox="0 0 24 24" fill="none" xmlns="http://www.w3.org/2000/svg">
<path d="M18.7503 4.41358C19.3889 4.68663 19.9691 5.08683 20.4578 5.59133C20.9467 6.09559 21.3346 6.69431 21.5992 7.35328C21.8638 8.01225 22 8.71857 22 9.43187C22 10.1452 21.8638 10.8515 21.5992 11.5105C21.3346 12.1694 20.9467 12.7681 20.4578 13.2724L19.4436 14.3189L14.8722 19.036C13.3006 20.6577 10.6989 20.6577 9.12731 19.036L4.55588 14.3189L3.54168 13.2724C2.55456 12.2538 2 10.8723 2 9.43187C2 7.99139 2.55456 6.6099 3.54168 5.59133C4.52879 4.57276 5.86761 4.00053 7.26361 4.00053C8.6596 4.00053 9.99842 4.57276 10.9855 5.59133C11.5405 6.16392 12.459 6.16392 13.0139 5.59133C13.5026 5.08683 14.0829 4.68663 14.7215 4.41358C15.3601 4.14054 16.0446 4 16.7359 4C17.4272 4 18.1117 4.14054 18.7503 4.41358Z" stroke="#100030" stroke-width="1.5" stroke-linecap="round" stroke-linejoin="round"/>
</svg>
