<svg width="24" height="24" viewBox="0 0 24 24" fill="none" xmlns="http://www.w3.org/2000/svg">
<path d="M1 2H2.04243C3.47332 2 4.66118 3.09294 4.76411 4.50416L5.09311 9.01544M8.32655 19H18.7592C20.0867 19 21.2216 18.0553 21.448 16.7619L22.9593 8.12753C23.248 6.47789 21.9636 4.96912 20.2705 4.96912H7.73882C6.15965 4.96912 4.91019 6.29058 5.01624 7.84857L5.60397 16.483C5.7004 17.8996 6.89064 19 8.32655 19Z" stroke="#100030" stroke-width="1.5" stroke-linecap="round"/>
<path d="M11 12H14M14 12C15.1716 12 15.8284 12 17 12M14 12V9M14 12L14 15" stroke="#100030" stroke-width="1.5" stroke-linecap="round"/>
<path d="M7 22H7.0274M20.9726 22H21" stroke="#100030" stroke-width="3" stroke-linecap="round"/>
</svg>
