<svg width="24" height="24" viewBox="0 0 24 24" fill="none" xmlns="http://www.w3.org/2000/svg">
<path d="M2 11.25C1.58579 11.25 1.25 11.5858 1.25 12C1.25 12.4142 1.58579 12.75 2 12.75L2 11.25ZM2 12.75L16 12.75L16 11.25L2 11.25L2 12.75Z" fill="#100030"/>
<path d="M13.1289 8.13202L16.2787 11.2819C16.6693 11.6724 16.6693 12.3055 16.2787 12.6961L13.1289 15.8459" stroke="#100030" stroke-width="1.5" stroke-linecap="round"/>
<path d="M8 7.05V6C8 4.34314 9.34315 3 11 3H19C20.6569 3 22 4.34315 22 6V18C22 19.6569 20.6569 21 19 21H11C9.34315 21 8 19.6569 8 18V16.95" stroke="#100030" stroke-width="1.5" stroke-linecap="round"/>
</svg>
