<svg xmlns="http://www.w3.org/2000/svg" width="28" height="28" fill="none" viewBox="0 0 28 28">
  <path fill="#fff"
    d="m5.5508 11.352 2.3743 2.3743 1.0716-1.0716-2.3743-2.3744-1.0716 1.0717Zm2.3743 2.3743a.3873.3873 0 0 1 0 .5477l1.0716 1.0717c.7431-.7432.743-1.948 0-2.691L7.925 13.7263Zm0 .5477L5.551 16.6484 6.6225 17.72l2.3742-2.3743-1.0716-1.0717ZM5.551 16.6484a.3874.3874 0 0 1-.5477 0L3.9317 17.72c.743.7431 1.9478.7431 2.6909 0l-1.0717-1.0716Zm-.5477 0L2.629 14.274l-1.0716 1.0717L3.9316 17.72l1.0716-1.0716ZM2.629 14.274a.3873.3873 0 0 1 0-.5477l-1.0716-1.0716c-.743.7431-.743 1.9479 0 2.691L2.629 14.274Zm0-.5477L5.003 11.352l-1.0716-1.0717-2.3742 2.3744 1.0716 1.0716ZM5.003 11.352a.3872.3872 0 0 1 .5477 0l1.0716-1.0717c-.7431-.743-1.9479-.7431-2.691 0l1.0717 1.0717ZM11.3517 22.449l2.3743-2.3744-1.0716-1.0716-2.3743 2.3744 1.0716 1.0716Zm2.3743-2.3744a.3874.3874 0 0 1 .5477 0l1.0716-1.0717c-.7431-.7431-1.9479-.743-2.6909.0001l1.0716 1.0716Zm.5477 0 2.3743 2.3743 1.0715-1.0717-2.3742-2.3743-1.0716 1.0717Zm2.3743 2.3743a.3873.3873 0 0 1-.0001.5477l1.0716 1.0716c.7431-.7431.7431-1.9479 0-2.691l-1.0715 1.0717Zm-.0001.5477-2.3742 2.3744 1.0716 1.0716 2.3742-2.3744-1.0716-1.0716Zm-2.3742 2.3744a.3872.3872 0 0 1-.5477 0l-1.0716 1.0717c.7431.7431 1.9478.743 2.6909-.0001l-1.0716-1.0716Zm-.5477 0-2.3743-2.3742-1.0716 1.0716 2.3743 2.3743 1.0716-1.0717Zm-2.3743-2.3742a.3875.3875 0 0 1 0-.5478l-1.0716-1.0716c-.743.7431-.743 1.9479 0 2.691l1.0716-1.0716Z" />
  <path fill="#fff"
    d="M6.153 5.7663h3.3577V4.2508H6.153v1.5155Zm3.3577 0c.2139 0 .3873.1734.3873.3873h1.5155c0-1.0509-.852-1.9028-1.9028-1.9028v1.5155Zm.3873.3873v3.3578h1.5155V6.1536H9.898Zm0 3.3578a.3873.3873 0 0 1-.3873.3873v1.5155c1.0508 0 1.9028-.8519 1.9028-1.9028H9.898Zm-.3873.3873H6.153v1.5155h3.3577V9.8987Zm-3.3577 0a.3873.3873 0 0 1-.3873-.3873H4.2501c0 1.0509.8519 1.9028 1.9028 1.9028V9.8987Zm-.3873-.3873V6.1536H4.2501v3.3578h1.5154Zm0-3.3578a.3873.3873 0 0 1 .3873-.3873V4.2508c-1.0509 0-1.9028.852-1.9028 1.9028h1.5154ZM22.4492 16.648l-2.3743-2.3743-1.0716 1.0717 2.3743 2.3743 1.0716-1.0717Zm-2.3743-2.3743a.3872.3872 0 0 1 0-.5477l-1.0716-1.0717c-.7431.7432-.7431 1.948 0 2.6911l1.0716-1.0717Zm0-.5477 2.3742-2.3744-1.0716-1.0716-2.3742 2.3743 1.0716 1.0717Zm2.3742-2.3744a.3874.3874 0 0 1 .5477 0l1.0716-1.0716c-.7431-.7431-1.9479-.7431-2.6909 0l1.0716 1.0716Zm.5477 0 2.3743 2.3744 1.0716-1.0717-2.3743-2.3743-1.0716 1.0716Zm2.3743 2.3744a.3874.3874 0 0 1 0 .5477l1.0716 1.0716c.7431-.7431.743-1.9479 0-2.691l-1.0716 1.0717Zm0 .5477-2.3742 2.3743 1.0716 1.0717 2.3742-2.3744-1.0716-1.0716Zm-2.3742 2.3743a.3872.3872 0 0 1-.5477 0l-1.0716 1.0717c.7431.7431 1.9479.7431 2.6909 0l-1.0716-1.0717Z" />
  <path fill="#fff"
    d="M18.1019 6.1533v3.358h-1.5154v-3.358h1.5154Zm0 3.358c0 .2138.1735.3872.3873.3872v1.5156c-1.0508 0-1.9027-.852-1.9027-1.9029h1.5154Zm.3873.3872h3.3577v1.5156h-3.3577V9.8985Zm3.3577 0a.3874.3874 0 0 0 .3873-.3873h1.5154c0 1.0509-.8519 1.9029-1.9027 1.9029V9.8985Zm.3873-.3873V6.1533h1.5154v3.358h-1.5154Zm0-3.3579a.3874.3874 0 0 0-.3873-.3873V4.2505c1.0508 0 1.9027.852 1.9027 1.9028h-1.5154Zm-.3873-.3873h-3.3577V4.2505h3.3577V5.766Zm-3.3577 0a.3874.3874 0 0 0-.3873.3873h-1.5154c0-1.0509.8519-1.9028 1.9027-1.9028V5.766Z" />
  <path fill="#fff"
    d="M16.6472 5.551 14.273 7.9254l1.0716 1.0716 2.3742-2.3744-1.0716-1.0716ZM14.273 7.9254a.3874.3874 0 0 1-.5478 0l-1.0715 1.0717c.7431.743 1.9478.743 2.6909-.0001L14.273 7.9254Zm-.5478 0L11.351 5.5511l-1.0716 1.0717 2.3743 2.3743 1.0715-1.0717ZM11.351 5.5511a.3874.3874 0 0 1 0-.5477l-1.0716-1.0716c-.743.743-.743 1.9479 0 2.691L11.351 5.551Zm0-.5477 2.3743-2.3744-1.0717-1.0716-2.3742 2.3744 1.0716 1.0716Zm2.3743-2.3744a.3873.3873 0 0 1 .5477 0l1.0715-1.0717c-.743-.7431-1.9478-.743-2.6909 0l1.0717 1.0717Zm.5477 0 2.3742 2.3742 1.0716-1.0716-2.3743-2.3743L14.273 2.629Zm2.3742 2.3742a.3873.3873 0 0 1 0 .5478l1.0716 1.0716c.7431-.7431.7431-1.948 0-2.691l-1.0716 1.0716ZM18.4885 18.1033h3.3577v-1.5155h-3.3577v1.5155Zm3.3577 0a.3873.3873 0 0 1 .3873.3873h1.5155c0-1.0509-.852-1.9028-1.9028-1.9028v1.5155Zm.3873.3873v3.3578h1.5155v-3.3578h-1.5155Zm0 3.3578a.3873.3873 0 0 1-.3873.3873v1.5155c1.0508 0 1.9028-.8519 1.9028-1.9028h-1.5155Zm-.3873.3873h-3.3577v1.5155h3.3577v-1.5155Zm-3.3577 0a.3872.3872 0 0 1-.3873-.3873h-1.5155c0 1.0509.8519 1.9028 1.9028 1.9028v-1.5155Zm-.3873-.3873v-3.3578h-1.5155v3.3578h1.5155Zm0-3.3578a.3872.3872 0 0 1 .3873-.3873v-1.5155c-1.0509 0-1.9028.8519-1.9028 1.9028h1.5155ZM6.1446 18.1033h3.3577v-1.5155H6.1446v1.5155Zm3.3577 0c.214 0 .3874.1734.3874.3873h1.5154c0-1.0509-.8519-1.9028-1.9028-1.9028v1.5155Zm.3874.3873v3.3578h1.5154v-3.3578H9.8897Zm0 3.3578a.3873.3873 0 0 1-.3874.3873v1.5155c1.0509 0 1.9028-.8519 1.9028-1.9028H9.8897Zm-.3874.3873H6.1446v1.5155h3.3577v-1.5155Zm-3.3577 0a.3873.3873 0 0 1-.3873-.3873H4.242c0 1.0509.8519 1.9028 1.9027 1.9028v-1.5155Zm-.3873-.3873v-3.3578H4.242v3.3578h1.5154Zm0-3.3578a.3873.3873 0 0 1 .3873-.3873v-1.5155c-1.0508 0-1.9027.8519-1.9027 1.9028h1.5154Z" />
</svg>