<svg xmlns="http://www.w3.org/2000/svg" width="24" height="24" fill="none" viewBox="0 0 24 24">
  <path fill="currentcolor"
    d="M10.712 14.937v-.127c.009-.829.089-1.488.24-1.978.156-.49.377-.887.662-1.19.285-.303.63-.579 1.032-.828.26-.17.493-.359.7-.568.208-.21.372-.45.493-.722.121-.272.182-.572.182-.902 0-.397-.09-.74-.272-1.03a1.835 1.835 0 0 0-.727-.667 2.077 2.077 0 0 0-1-.241c-.332 0-.65.071-.953.214a1.823 1.823 0 0 0-.753.668c-.199.299-.313.684-.344 1.156H8c.03-.802.227-1.479.59-2.031a3.481 3.481 0 0 1 1.44-1.263A4.59 4.59 0 0 1 12.024 5c.796 0 1.492.154 2.089.461.597.303 1.06.728 1.388 1.276.334.544.5 1.179.5 1.905 0 .499-.076.949-.227 1.35-.152.396-.368.75-.649 1.062-.277.312-.61.588-1 .83a4.406 4.406 0 0 0-.895.734 2.36 2.36 0 0 0-.493.902c-.103.348-.16.778-.168 1.29v.127h-1.856Zm.98 4.063c-.355 0-.66-.13-.915-.388a1.313 1.313 0 0 1-.383-.948c0-.366.128-.678.383-.936a1.23 1.23 0 0 1 .915-.394c.35 0 .653.131.908.394.26.258.39.57.39.935a1.363 1.363 0 0 1-.649 1.156c-.195.12-.411.181-.65.181Z" />
  <circle cx="12" cy="12" r="11.5" stroke="currentcolor" />
  
</svg>