<svg width="24" height="24" viewBox="0 0 24 24" fill="none" xmlns="http://www.w3.org/2000/svg">
<path fill-rule="evenodd" clip-rule="evenodd" d="M2.3937 12.0481C3.20082 13.3404 6.12885 17.25 12.0001 17.25C17.8713 17.25 20.7993 13.3404 21.6065 12.0481C21.1392 11.4409 20.0911 10.2003 18.562 9.07126C16.8793 7.82882 14.6539 6.75 12.0001 6.75C9.34631 6.75 7.1209 7.82882 5.43815 9.07126C3.90904 10.2003 2.86098 11.4409 2.3937 12.0481ZM4.54718 7.86454C6.39435 6.5007 8.92609 5.25 12.0001 5.25C15.0741 5.25 17.6058 6.5007 19.453 7.86454C21.2992 9.2277 22.5015 10.7323 22.9362 11.3201C23.2207 11.7046 23.2502 12.2178 23.0058 12.6333C22.2885 13.8526 18.9748 18.75 12.0001 18.75C5.02539 18.75 1.71165 13.8526 0.994374 12.6333C0.749964 12.2178 0.779498 11.7046 1.06397 11.3201C1.49871 10.7323 2.70094 9.2277 4.54718 7.86454Z" fill="#100030"/>
<path fill-rule="evenodd" clip-rule="evenodd" d="M12 14.5C13.3807 14.5 14.5 13.3807 14.5 12C14.5 10.6193 13.3807 9.5 12 9.5C10.6193 9.5 9.5 10.6193 9.5 12C9.5 13.3807 10.6193 14.5 12 14.5ZM12 16C14.2091 16 16 14.2091 16 12C16 9.79086 14.2091 8 12 8C9.79086 8 8 9.79086 8 12C8 14.2091 9.79086 16 12 16Z" fill="#100030"/>
</svg>
