<svg width="24" height="24" viewBox="0 0 24 24" fill="none" xmlns="http://www.w3.org/2000/svg">
<path fill-rule="evenodd" clip-rule="evenodd" d="M18.0161 6.92325C16.367 5.97515 14.3408 5.25 12.0001 5.25C8.92609 5.25 6.39435 6.5007 4.54718 7.86454C2.70094 9.2277 1.49871 10.7323 1.06397 11.3201C0.779498 11.7046 0.749964 12.2178 0.994374 12.6333C1.51668 13.5211 3.41577 16.3593 7.10265 17.8367L8.27353 16.6658C4.84682 15.5258 3.00732 13.0306 2.3937 12.0481C2.86098 11.4409 3.90904 10.2003 5.43815 9.07126C7.1209 7.82882 9.34631 6.75 12.0001 6.75C13.8616 6.75 15.5123 7.28081 16.9128 8.02656L18.0161 6.92325ZM15.2591 9.68028C14.5338 8.6632 13.3444 8 12 8C9.79086 8 8 9.79086 8 12C8 13.3444 8.6632 14.5338 9.68028 15.2591L10.7651 14.1742C10.0095 13.7442 9.5 12.9316 9.5 12C9.5 10.6193 10.6193 9.5 12 9.5C12.9316 9.5 13.7442 10.0095 14.1742 10.7651L15.2591 9.68028ZM14.4161 12.6445L15.9097 11.151C15.9689 11.4246 16 11.7087 16 12C16 14.2091 14.2091 16 12 16C11.7087 16 11.4246 15.9689 11.151 15.9097L12.6445 14.4161C13.5072 14.1866 14.1866 13.5072 14.4161 12.6445ZM9.97449 17.0862C10.6066 17.1914 11.2813 17.25 12.0001 17.25C17.8713 17.25 20.7993 13.3404 21.6065 12.0481C21.1392 11.4409 20.0911 10.2003 18.562 9.07126C18.4531 8.99083 18.3419 8.91107 18.2284 8.83226L19.3045 7.7562C19.3545 7.79222 19.404 7.82834 19.453 7.86454C21.2992 9.2277 22.5015 10.7323 22.9362 11.3201C23.2207 11.7046 23.2502 12.2178 23.0058 12.6333C22.2885 13.8526 18.9748 18.75 12.0001 18.75C10.7943 18.75 9.69792 18.6036 8.70547 18.3552L9.97449 17.0862Z" fill="#100030"/>
<path fill-rule="evenodd" clip-rule="evenodd" d="M20.5303 3.46967C20.8232 3.76256 20.8232 4.23744 20.5303 4.53033L4.53033 20.5303C4.23744 20.8232 3.76256 20.8232 3.46967 20.5303C3.17678 20.2374 3.17678 19.7626 3.46967 19.4697L19.4697 3.46967C19.7626 3.17678 20.2374 3.17678 20.5303 3.46967Z" fill="#100030"/>
</svg>
