<svg width="26" height="26" viewBox="0 0 26 26" fill="none" xmlns="http://www.w3.org/2000/svg">
          <path d="M21.7734 9.41976C21.6391 9.52419 19.2821 10.8519 19.2821 13.8057C19.2821 17.2219 22.2806 18.4303 22.3701 18.4601C22.3553 18.5346 21.8928 20.116 20.7888 21.7271C19.8042 23.1444 18.7748 24.5616 17.2084 24.5616C15.6421 24.5616 15.2392 23.6516 13.4341 23.6516C11.6737 23.6516 11.0471 24.5915 9.61498 24.5915C8.18281 24.5915 7.18326 23.2786 6.03463 21.6675C4.7069 19.7728 3.63281 16.8339 3.63281 14.0443C3.63281 9.56883 6.54192 7.19676 9.40611 7.19676C10.9278 7.19676 12.1958 8.19632 13.1505 8.19632C14.0605 8.19632 15.4778 7.1371 17.2083 7.1371C17.8648 7.13725 20.222 7.19705 21.7734 9.41976ZM16.388 5.24271C17.104 4.39237 17.6113 3.21385 17.6113 2.03533C17.6113 1.87124 17.5964 1.70715 17.5665 1.57281C16.4029 1.61759 15.0155 2.34863 14.18 3.31828C13.5236 4.06419 12.9119 5.24272 12.9119 6.43626C12.9119 6.61523 12.9418 6.79434 12.9567 6.85399C13.0312 6.86887 13.1507 6.88389 13.27 6.88389C14.3143 6.88375 15.627 6.18261 16.388 5.24271Z" fill="#100030"/>
        </svg>