<svg width="13" height="13" viewBox="0 0 13 13" fill="none" xmlns="http://www.w3.org/2000/svg">
<g clip-path="url(#clip0_229_1621)">
<path d="M9.875 4.14472C9.39888 3.70732 9.01858 3.1687 8.7598 2.56524C8.50102 1.96179 8.3698 1.30757 8.375 0.646816C8.37442 0.529732 8.34346 0.414984 8.28538 0.314689C8.2273 0.214394 8.14427 0.132275 8.04505 0.0770031C7.94582 0.0217314 7.8341 -0.00464161 7.72166 0.000669321C7.60922 0.00598025 7.50025 0.042778 7.40625 0.107177C6.63328 0.585554 5.95912 1.21856 5.42274 1.96961C4.88635 2.72065 4.49838 3.57484 4.28125 4.4828C4.15504 4.25274 4.06037 4.00545 4 3.74811C3.97676 3.62855 3.92165 3.51819 3.84097 3.42966C3.76028 3.34113 3.65729 3.278 3.54375 3.24749C3.4352 3.21299 3.31968 3.2099 3.20957 3.23853C3.09946 3.26717 2.99892 3.32645 2.91875 3.41003C2.125 4.27475 1.5 6.49832 1.5 7.79866C1.5 11.1015 3.325 13 6.5 13C9.675 13 11.5 11.0495 11.5 7.79866C11.5 5.99119 10.6375 5.00944 9.875 4.14472Z" fill="#657E4F"/>
</g>
<defs>
<clipPath id="clip0_229_1621">
<rect width="13" height="13" fill="white"/>
</clipPath>
</defs>
</svg>
