<svg width="143" height="34" viewBox="0 0 143 34" fill="none" xmlns="http://www.w3.org/2000/svg">
<path d="M41.6772 27.4963V4.3871H49.904C53.8989 4.3871 56.9458 5.35594 59.0448 7.29317C61.1438 9.2304 62.1933 12.1133 62.1933 15.9417C62.1933 19.7702 61.1438 22.653 59.0448 24.5903C56.9458 26.5276 53.8989 27.4963 49.904 27.4963H41.6772ZM46.62 23.2411H49.8362C52.4769 23.2411 54.3615 22.6415 55.49 21.4422C56.6185 20.2199 57.1828 18.3864 57.1828 15.9417C57.1828 13.497 56.6185 11.6751 55.49 10.4757C54.3615 9.25352 52.4769 8.64241 49.8362 8.64241H46.62V23.2411ZM73.0933 27.8422C71.4005 27.8422 69.8883 27.4963 68.5567 26.8044C67.2477 26.0894 66.2208 25.0977 65.476 23.8292C64.731 22.5377 64.3588 21.0502 64.3588 19.3666C64.3588 17.6599 64.731 16.1724 65.476 14.9039C66.2208 13.6354 67.2477 12.6552 68.5567 11.9634C69.8657 11.2484 71.3781 10.8909 73.0933 10.8909C74.8086 10.8909 76.3208 11.2484 77.63 11.9634C78.939 12.6552 79.9659 13.6354 80.7107 14.9039C81.4554 16.1724 81.8279 17.6599 81.8279 19.3666C81.8279 21.0502 81.4554 22.5377 80.7107 23.8292C79.9659 25.0977 78.939 26.0894 77.63 26.8044C76.3208 27.4963 74.8086 27.8422 73.0933 27.8422ZM73.0933 23.6909C73.8833 23.6909 74.5717 23.5179 75.1585 23.1719C75.7677 22.826 76.2305 22.3302 76.5466 21.6844C76.885 21.0156 77.0543 20.243 77.0543 19.3666C77.0543 18.4671 76.885 17.6945 76.5466 17.0487C76.2305 16.403 75.7677 15.9071 75.1585 15.5612C74.5717 15.2152 73.8833 15.0423 73.0933 15.0423C72.3033 15.0423 71.6036 15.2152 70.9944 15.5612C70.4075 15.9071 69.9448 16.403 69.6063 17.0487C69.2903 17.6945 69.1324 18.4671 69.1324 19.3666C69.1324 20.243 69.2903 21.0156 69.6063 21.6844C69.9448 22.3302 70.4075 22.826 70.9944 23.1719C71.6036 23.5179 72.3033 23.6909 73.0933 23.6909ZM85.0051 27.4963V4.3871H96.0078C97.8359 4.3871 99.3595 4.59469 100.578 5.00987C101.82 5.42506 102.745 6.07073 103.354 6.9471C103.986 7.80059 104.302 8.93057 104.302 10.3375C104.302 11.629 104.02 12.7244 103.456 13.6239C102.892 14.5003 101.966 15.1576 100.68 15.5958C102.192 15.9879 103.287 16.6567 103.964 17.6023C104.641 18.5478 104.979 19.7471 104.979 21.2001C104.979 23.368 104.257 24.9593 102.813 25.9741C101.368 26.9889 99.0887 27.4963 95.9739 27.4963H85.0051ZM89.9478 23.4487H95.3985C96.527 23.4487 97.4184 23.3564 98.0729 23.1719C98.75 22.9644 99.2354 22.6415 99.5288 22.2033C99.8223 21.7651 99.969 21.1886 99.969 20.4736C99.969 19.7586 99.8223 19.1821 99.5288 18.7439C99.2354 18.3057 98.75 17.9943 98.0729 17.8098C97.4184 17.6023 96.527 17.4985 95.3985 17.4985H89.9478V23.4487ZM89.9478 13.6931H95.3985C96.8656 13.6931 97.8812 13.497 98.4454 13.105C99.0096 12.6899 99.2919 12.0095 99.2919 11.0639C99.2919 10.1413 99.0096 9.47255 98.4454 9.05737C97.9038 8.64241 96.888 8.43482 95.3985 8.43482H89.9478V13.6931ZM113.725 27.8422C111.942 27.8422 110.532 27.3233 109.494 26.2854C108.455 25.2246 107.936 23.5986 107.936 21.4076V11.2369H112.608V20.6812C112.608 21.6959 112.823 22.457 113.251 22.9644C113.68 23.4487 114.324 23.6909 115.181 23.6909C116.197 23.6909 116.998 23.3564 117.585 22.6876C118.194 21.9957 118.499 21.004 118.499 19.7125V11.2369H123.171V27.4963H118.736V25.5244C118.239 26.2393 117.574 26.8044 116.738 27.2195C115.926 27.6346 114.922 27.8422 113.725 27.8422ZM129.242 34C128.474 34 127.696 33.9077 126.906 33.7232C126.116 33.5387 125.461 33.3081 124.942 33.0314L126.195 29.4681C126.601 29.6296 127.03 29.768 127.481 29.8833C127.955 30.0216 128.418 30.0908 128.869 30.0908C129.253 30.0908 129.614 30.0332 129.952 29.9179C130.314 29.8025 130.641 29.6296 130.934 29.399C131.25 29.1914 131.521 28.9262 131.747 28.6033L125.314 11.2369H130.325L133.948 23.0336L137.604 11.2369H142.58L136.52 27.4963C135.956 29.0645 135.29 30.3215 134.523 31.267C133.778 32.2357 132.954 32.9276 132.051 33.3427C131.171 33.7809 130.235 34 129.242 34Z" fill="#4C00C9"/>
<path d="M5.75907 13.1005L8.76378 16.1052L10.1199 14.7491L7.11515 11.7443L5.75907 13.1005ZM8.76378 16.1052C8.9552 16.2967 8.95519 16.607 8.76381 16.7984L10.1199 18.1546C11.0603 17.2141 11.0602 15.6894 10.1199 14.7491L8.76378 16.1052ZM8.76381 16.7984L5.75926 19.8032L7.11538 21.1593L10.1199 18.1546L8.76381 16.7984ZM5.75926 19.8032C5.56789 19.9946 5.25755 19.9946 5.06613 19.8032L3.71003 21.1593C4.6504 22.0997 6.17502 22.0997 7.11538 21.1593L5.75926 19.8032ZM5.06613 19.8032L2.06141 16.7984L0.705313 18.1546L3.71003 21.1593L5.06613 19.8032ZM2.06141 16.7984C1.86998 16.607 1.87001 16.2966 2.06137 16.1052L0.705237 14.7491C-0.235126 15.6895 -0.235058 17.2142 0.705313 18.1546L2.06141 16.7984ZM2.06137 16.1052L5.06592 13.1005L3.70979 11.7443L0.705237 14.7491L2.06137 16.1052ZM5.06592 13.1005C5.25731 12.9091 5.56764 12.9091 5.75907 13.1005L7.11515 11.7443C6.17478 10.8039 4.65015 10.8039 3.70979 11.7443L5.06592 13.1005Z" fill="#FFB119"/>
<path d="M13.1002 27.1439L16.1049 24.1391L14.7487 22.783L11.7441 25.7878L13.1002 27.1439ZM16.1049 24.1391C16.2963 23.9477 16.6066 23.9477 16.798 24.1391L18.1541 22.7829C17.2137 21.8425 15.6891 21.8425 14.7487 22.783L16.1049 24.1391ZM16.798 24.1391L19.8026 27.1437L21.1587 25.7876L18.1541 22.7829L16.798 24.1391ZM19.8026 27.1437C19.994 27.3351 19.994 27.6455 19.8026 27.8369L21.1587 29.1931C22.0991 28.2526 22.0991 26.728 21.1587 25.7876L19.8026 27.1437ZM19.8026 27.8369L16.798 30.8417L18.1541 32.1979L21.1587 29.1931L19.8026 27.8369ZM16.798 30.8417C16.6065 31.0332 16.2962 31.0332 16.1048 30.8418L14.7487 32.198C15.6891 33.1384 17.2138 33.1383 18.1541 32.1979L16.798 30.8417ZM16.1048 30.8418L13.1002 27.8371L11.7441 29.1933L14.7487 32.198L16.1048 30.8418ZM13.1002 27.8371C12.9088 27.6457 12.9088 27.3354 13.1002 27.1439L11.7441 25.7878C10.8037 26.7282 10.8037 28.2529 11.7441 29.1933L13.1002 27.8371Z" fill="#FFB119"/>
<path d="M6.52112 6.03183H10.7703V4.11394H6.52112V6.03183ZM10.7703 6.03183C11.0411 6.03183 11.2605 6.2513 11.2605 6.52197H13.1783C13.1783 5.19203 12.1002 4.11394 10.7703 4.11394V6.03183ZM11.2605 6.52197V10.7713H13.1783V6.52197H11.2605ZM11.2605 10.7713C11.2605 11.0419 11.0411 11.2614 10.7703 11.2614V13.1793C12.1002 13.1793 13.1783 12.1012 13.1783 10.7713H11.2605ZM10.7703 11.2614H6.52112V13.1793H10.7703V11.2614ZM6.52112 11.2614C6.25039 11.2614 6.03097 11.0419 6.03097 10.7713H4.11313C4.11313 12.1012 5.19125 13.1793 6.52112 13.1793V11.2614ZM6.03097 10.7713V6.52197H4.11313V10.7713H6.03097ZM6.03097 6.52197C6.03097 6.2513 6.2504 6.03183 6.52112 6.03183V4.11394C5.19125 4.11394 4.11313 5.19203 4.11313 6.52197H6.03097Z" fill="#FFB119"/>
<path d="M27.1442 19.8027L24.1394 16.798L22.7834 18.1542L25.7881 21.1589L27.1442 19.8027ZM24.1394 16.798C23.948 16.6066 23.948 16.2962 24.1394 16.1048L22.7833 14.7487C21.8429 15.6891 21.843 17.2138 22.7834 18.1542L24.1394 16.798ZM24.1394 16.1048L27.144 13.1001L25.7878 11.7439L22.7833 14.7487L24.1394 16.1048ZM27.144 13.1001C27.3353 12.9087 27.6457 12.9087 27.8371 13.1001L29.1932 11.7439C28.2528 10.8035 26.7282 10.8035 25.7878 11.7439L27.144 13.1001ZM27.8371 13.1001L30.8418 16.1048L32.1979 14.7486L29.1932 11.7439L27.8371 13.1001ZM30.8418 16.1048C31.0332 16.2963 31.0332 16.6066 30.8419 16.798L32.198 18.1541C33.1384 17.2137 33.1383 15.689 32.1979 14.7486L30.8418 16.1048ZM30.8419 16.798L27.8373 19.8027L29.1934 21.1589L32.198 18.1541L30.8419 16.798ZM27.8373 19.8027C27.6459 19.9941 27.3356 19.9942 27.1442 19.8027L25.7881 21.1589C26.7284 22.0993 28.2531 22.0993 29.1934 21.1589L27.8373 19.8027Z" fill="#FFB119"/>
<path d="M21.6427 6.5216V10.771H19.7248V6.5216H21.6427ZM21.6427 10.771C21.6427 11.0417 21.8621 11.2612 22.1328 11.2612V13.1791C20.8029 13.1791 19.7248 12.1009 19.7248 10.771H21.6427ZM22.1328 11.2612H26.3819V13.1791H22.1328V11.2612ZM26.3819 11.2612C26.6525 11.2612 26.872 11.0417 26.872 10.771H28.7898C28.7898 12.1009 27.7118 13.1791 26.3819 13.1791V11.2612ZM26.872 10.771V6.5216H28.7898V10.771H26.872ZM26.872 6.5216C26.872 6.25087 26.6525 6.03144 26.3819 6.03144V4.11352C27.7118 4.11352 28.7898 5.19168 28.7898 6.5216H26.872ZM26.3819 6.03144H22.1328V4.11352H26.3819V6.03144ZM22.1328 6.03144C21.8621 6.03144 21.6427 6.25087 21.6427 6.5216H19.7248C19.7248 5.19168 20.8029 4.11352 22.1328 4.11352V6.03144Z" fill="#FFB119"/>
<path d="M19.8017 5.75929L16.797 8.76412L18.1532 10.1203L21.1578 7.11544L19.8017 5.75929ZM16.797 8.76412C16.6056 8.95555 16.2953 8.95556 16.1039 8.76417L14.7478 10.1203C15.6882 11.0607 17.2128 11.0607 18.1532 10.1203L16.797 8.76412ZM16.1039 8.76417L13.0993 5.75949L11.7432 7.11567L14.7478 10.1203L16.1039 8.76417ZM13.0993 5.75949C12.9079 5.5681 12.9079 5.25776 13.0993 5.06633L11.7432 3.71018C10.8028 4.65059 10.8028 6.17527 11.7432 7.11567L13.0993 5.75949ZM13.0993 5.06633L16.1039 2.0615L14.7478 0.705342L11.7432 3.71018L13.0993 5.06633ZM16.1039 2.0615C16.2953 1.87006 16.6057 1.87007 16.797 2.06146L18.1531 0.705266C17.2128 -0.235135 15.6881 -0.235067 14.7478 0.705342L16.1039 2.0615ZM16.797 2.06146L19.8017 5.06613L21.1578 3.70994L18.1531 0.705266L16.797 2.06146ZM19.8017 5.06613C19.9931 5.25752 19.9931 5.56785 19.8017 5.75929L21.1578 7.11544C22.0981 6.17504 22.0982 4.65034 21.1578 3.70994L19.8017 5.06613Z" fill="#FFB119"/>
<path d="M22.1318 21.6444H26.381V19.7265H22.1318V21.6444ZM26.381 21.6444C26.6518 21.6444 26.8712 21.8639 26.8712 22.1345H28.789C28.789 20.8046 27.7109 19.7265 26.381 19.7265V21.6444ZM26.8712 22.1345V26.3838H28.789V22.1345H26.8712ZM26.8712 26.3838C26.8712 26.6545 26.6518 26.8739 26.381 26.8739V28.7919C27.7109 28.7919 28.789 27.7138 28.789 26.3838H26.8712ZM26.381 26.8739H22.1318V28.7919H26.381V26.8739ZM22.1318 26.8739C21.8611 26.8739 21.6417 26.6545 21.6417 26.3838H19.7238C19.7238 27.7138 20.8019 28.7919 22.1318 28.7919V26.8739ZM21.6417 26.3838V22.1345H19.7238V26.3838H21.6417ZM21.6417 22.1345C21.6417 21.8639 21.8611 21.6444 22.1318 21.6444V19.7265C20.8019 19.7265 19.7238 20.8046 19.7238 22.1345H21.6417Z" fill="#FFB119"/>
<path d="M6.51057 21.6444H10.7598V19.7265H6.51057V21.6444ZM10.7598 21.6444C11.0305 21.6444 11.2499 21.8639 11.2499 22.1345H13.1678C13.1678 20.8046 12.0897 19.7265 10.7598 19.7265V21.6444ZM11.2499 22.1345V26.3838H13.1678V22.1345H11.2499ZM11.2499 26.3838C11.2499 26.6545 11.0305 26.8739 10.7598 26.8739V28.7919C12.0897 28.7919 13.1678 27.7138 13.1678 26.3838H11.2499ZM10.7598 26.8739H6.51057V28.7919H10.7598V26.8739ZM6.51057 26.8739C6.23985 26.8739 6.02042 26.6545 6.02042 26.3838H4.10258C4.10258 27.7138 5.1807 28.7919 6.51057 28.7919V26.8739ZM6.02042 26.3838V22.1345H4.10258V26.3838H6.02042ZM6.02042 22.1345C6.02042 21.8639 6.23985 21.6444 6.51057 21.6444V19.7265C5.1807 19.7265 4.10258 20.8046 4.10258 22.1345H6.02042Z" fill="#FFB119"/>
</svg>
