<?xml version="1.0" encoding="utf-8"?><svg viewBox="0 0 28 28" xmlns="http://www.w3.org/2000/svg" xmlns:xlink="http://www.w3.org/1999/xlink"><style>:root>svg{display:none}:root>svg:target{display:block}</style><svg fill="none" viewBox="0 0 24 24" id="arrow-down" xmlns="http://www.w3.org/2000/svg"><path d="M19 8l-5.583 6.29a2 2 0 01-3.01-.021L5 8" stroke="currentColor" stroke-width="1.5" stroke-linecap="round" stroke-linejoin="round"/></svg><svg fill="none" viewBox="0 0 24 24" id="arrow-left" xmlns="http://www.w3.org/2000/svg"><path d="M20 12H4.257m6.5 8L4.88 14.121a3 3 0 010-4.242L10.757 4" stroke="currentColor" stroke-width="1.5" stroke-linecap="round" stroke-linejoin="round"/></svg><svg fill="none" viewBox="0 0 24 24" id="arrow-next" xmlns="http://www.w3.org/2000/svg"><path d="M10 8l3.302 3.384a1 1 0 01-.018 1.415L10 16" stroke="currentColor" stroke-width="1.5" stroke-linecap="round" stroke-linejoin="round"/></svg><svg fill="none" viewBox="0 0 24 24" id="arrow-right" xmlns="http://www.w3.org/2000/svg"><path d="M4 12h15.743m-6.5-8l5.878 5.879a3 3 0 010 4.242L13.243 20" stroke="currentColor" stroke-width="1.5" stroke-linecap="round" stroke-linejoin="round"/></svg><svg fill="none" viewBox="0 0 24 24" id="box" xmlns="http://www.w3.org/2000/svg"><path d="M11.375 2.227a1.25 1.25 0 011.25 0l7.526 4.345c.387.223.625.636.625 1.083v8.69c0 .447-.238.86-.625 1.083l-7.526 4.345a1.25 1.25 0 01-1.25 0l-7.526-4.345a1.25 1.25 0 01-.625-1.083v-8.69c0-.447.238-.86.625-1.083l7.526-4.345z" stroke="currentColor" stroke-width="1.5"/><path d="M12 12.55v9.35M3.5 7.5l7.486 4.403a2 2 0 002.028 0L20.5 7.5M7.5 14v-4" stroke="currentColor" stroke-width="1.5" stroke-linecap="round"/></svg><svg fill="none" viewBox="0 0 24 24" id="burger" xmlns="http://www.w3.org/2000/svg"><path d="M3 5h18M3 12h18M3 19h18" stroke="currentColor" stroke-width="1.5" stroke-linecap="round"/></svg><svg fill="none" viewBox="0 0 24 24" id="cart" xmlns="http://www.w3.org/2000/svg"><path d="M2 3h.948c1.3 0 2.38.994 2.474 2.277l.299 4.1m2.94 9.077h9.484a2.473 2.473 0 002.444-2.034l1.374-7.85c.262-1.5-.905-2.87-2.444-2.87H8.126c-1.435 0-2.571 1.2-2.475 2.617l.534 7.85c.088 1.287 1.17 2.287 2.476 2.287z" stroke="currentColor" stroke-width="1.5" stroke-linecap="round"/><path d="M7.455 21.182h.024m12.678 0h.025" stroke="currentColor" stroke-width="3" stroke-linecap="round"/></svg><svg fill="none" viewBox="0 0 24 24" id="cart-add" xmlns="http://www.w3.org/2000/svg"><path d="M1 2h1.042c1.431 0 2.62 1.093 2.722 2.504l.33 4.511M8.326 19h10.432a2.72 2.72 0 002.689-2.238l1.511-8.634c.289-1.65-.995-3.159-2.689-3.159H7.74c-1.58 0-2.829 1.322-2.723 2.88l.588 8.634C5.7 17.9 6.891 19 8.327 19zM11 12h3m0 0h3m-3 0V9m0 3v3" stroke="currentColor" stroke-width="1.5" stroke-linecap="round"/><path d="M7 22h.027m13.946 0H21" stroke="currentColor" stroke-width="3" stroke-linecap="round"/></svg><svg fill="none" viewBox="0 0 24 24" id="cart-check" xmlns="http://www.w3.org/2000/svg"><path d="M10 10.875l2.364 2.401a1 1 0 001.425 0L18 9" stroke="currentColor" stroke-width="1.5" stroke-linecap="round"/><path d="M1 2h1.042c1.431 0 2.62 1.093 2.722 2.504l.33 4.511M8.326 19h10.432a2.72 2.72 0 002.689-2.238l1.511-8.634c.289-1.65-.995-3.159-2.689-3.159H7.74c-1.58 0-2.829 1.322-2.723 2.88l.588 8.634C5.7 17.9 6.891 19 8.327 19z" stroke="currentColor" stroke-width="1.5" stroke-linecap="round"/><path d="M7 22h.027m13.946 0H21" stroke="currentColor" stroke-width="3" stroke-linecap="round"/></svg><svg fill="none" viewBox="0 0 24 24" id="catalog" xmlns="http://www.w3.org/2000/svg"><rect x="6" y="4" width="14" height="14" rx="7" stroke="currentColor" stroke-width="1.5"/><path d="M18 16.5l4.571 4.386M1 5h3M1 17h3m-3-6h1.5" stroke="currentColor" stroke-width="1.5" stroke-linecap="round"/></svg><svg fill="none" viewBox="0 0 24 24" id="check" xmlns="http://www.w3.org/2000/svg"><path d="M19 8l-7.1 6.96a3.675 3.675 0 01-5.125 0L5 13.22" stroke="currentColor" stroke-width="1.5" stroke-linecap="round" stroke-linejoin="round"/></svg><svg fill="none" viewBox="0 0 24 24" id="close" xmlns="http://www.w3.org/2000/svg"><path d="M3 21L21 3M3 3l18 18" stroke="currentColor" stroke-width="1.5" stroke-linecap="round"/></svg><svg fill="none" viewBox="0 0 24 24" id="copy" xmlns="http://www.w3.org/2000/svg"><rect x="3.75" y="4.75" width="13.5" height="16.5" rx="2.25" stroke="currentColor" stroke-width="1.5"/><path d="M9 1h9a3 3 0 013 3v12" stroke="currentColor" stroke-width="1.5" stroke-linecap="round"/></svg><svg fill="none" viewBox="0 0 24 24" id="delete" xmlns="http://www.w3.org/2000/svg"><path d="M5 6.75h14m-1.273 0L16.91 19.2c0 .477-.172.935-.48 1.273a1.565 1.565 0 01-1.156.527H8.818c-.434 0-.85-.19-1.157-.527a1.895 1.895 0 01-.48-1.273L6.274 6.75m2.454 0V4.8c0-.477.173-.935.48-1.273A1.565 1.565 0 0110.364 3h3.272c.434 0 .85.19 1.157.527.307.338.48.796.48 1.273v1.95" stroke="currentColor" stroke-width="1.667" stroke-linecap="round" stroke-linejoin="round"/></svg><svg fill="none" viewBox="0 0 24 24" id="delivery" xmlns="http://www.w3.org/2000/svg"><path d="M5.2 5h9.803c.992 0 1.797.805 1.797 1.797v.635m-2 10.541H9.2m5.6 0c0 1.12.895 2.027 2 2.027s2-.907 2-2.027m-4 0c0-1.12.895-2.027 2-2.027m-7.6 2.027c0 1.12-.895 2.027-2 2.027s-2-.907-2-2.027.895-2.027 2-2.027 2 .908 2 2.027zm7.6-5.27H22m-5.2 0v-5.27m0 5.27v3.243m5.2-3.243v3.473c0 .992-.805 1.797-1.797 1.797H18.8m3.2-5.27l-1.56-4.11a1.797 1.797 0 00-1.68-1.16H16.8M2 8.648h7.2m-5.6 4.054h8.8m6.4 5.27c0-1.12-.895-2.027-2-2.027" stroke="currentColor" stroke-width="1.348" stroke-linecap="round" stroke-linejoin="round"/></svg><svg fill="none" viewBox="0 0 24 24" id="dots" xmlns="http://www.w3.org/2000/svg"><rect x="2" y="10" width="4" height="4" rx="2" fill="currentColor"/><rect x="10" y="10" width="4" height="4" rx="2" fill="currentColor"/><rect x="18" y="10" width="4" height="4" rx="2" fill="currentColor"/></svg><svg fill="none" viewBox="0 0 24 24" id="exit" xmlns="http://www.w3.org/2000/svg"><path d="M2 11.25a.75.75 0 000 1.5v-1.5zm0 1.5h14v-1.5H2v1.5z" fill="currentColor"/><path d="M13.129 8.132l3.15 3.15a1 1 0 010 1.414l-3.15 3.15" stroke="currentColor" stroke-width="1.5" stroke-linecap="round"/><path d="M8 7.05V6a3 3 0 013-3h8a3 3 0 013 3v12a3 3 0 01-3 3h-8a3 3 0 01-3-3v-1.05" stroke="currentColor" stroke-width="1.5" stroke-linecap="round"/></svg><svg fill="none" viewBox="0 0 24 24" id="filter" xmlns="http://www.w3.org/2000/svg"><path d="M11 7h10M3 7h2M3 17h10m6 0h2" stroke="currentColor" stroke-width="1.5" stroke-linecap="round"/><circle cx="8" cy="7" r="2.25" stroke="currentColor" stroke-width="1.5"/><circle cx="16" cy="17" r="2.25" stroke="currentColor" stroke-width="1.5"/></svg><svg fill="none" viewBox="0 0 24 24" id="find" xmlns="http://www.w3.org/2000/svg"><rect x="3" y="2" width="15" height="15" rx="7.5" stroke="currentColor" stroke-width="1.5"/><path d="M15.5 15.5l5.55 5.5" stroke="currentColor" stroke-width="1.5" stroke-linecap="round"/></svg><svg fill="none" viewBox="0 0 28 28" id="flower" xmlns="http://www.w3.org/2000/svg"><path fill="currentColor" d="M5.55 11.352l2.375 2.374 1.072-1.071-2.375-2.375-1.071 1.072zm2.375 2.374a.387.387 0 010 .548l1.072 1.072a1.903 1.903 0 000-2.691l-1.072 1.071zm0 .548l-2.374 2.374 1.071 1.072 2.375-2.374-1.072-1.072zm-2.374 2.374a.387.387 0 01-.548 0L3.932 17.72a1.903 1.903 0 002.69 0l-1.071-1.072zm-.548 0L2.63 14.274l-1.072 1.072 2.375 2.374 1.071-1.072zM2.63 14.274a.387.387 0 010-.548l-1.072-1.071a1.903 1.903 0 000 2.69l1.072-1.071zm0-.548l2.374-2.374-1.072-1.072-2.374 2.375 1.072 1.071zm2.374-2.374a.387.387 0 01.548 0l1.071-1.072a1.903 1.903 0 00-2.69 0l1.071 1.072zm6.349 11.097l2.374-2.374-1.072-1.072-2.374 2.374 1.072 1.072zm2.374-2.374a.387.387 0 01.548 0l1.071-1.072a1.903 1.903 0 00-2.69 0l1.071 1.072zm.548 0l2.374 2.374 1.071-1.072-2.374-2.374-1.071 1.072zm2.374 2.374a.387.387 0 010 .548l1.072 1.071a1.903 1.903 0 000-2.69l-1.072 1.07zm0 .548l-2.374 2.374 1.071 1.072 2.374-2.375-1.071-1.071zm-2.374 2.374a.387.387 0 01-.548 0l-1.072 1.072a1.903 1.903 0 002.691 0l-1.071-1.072zm-.548 0l-2.374-2.374-1.072 1.071 2.374 2.375 1.072-1.072zm-2.374-2.374a.388.388 0 010-.548l-1.072-1.072a1.903 1.903 0 000 2.691l1.072-1.071z"/><path fill="currentColor" d="M6.153 5.766h3.358V4.251H6.153v1.515zm3.358 0c.214 0 .387.174.387.388h1.516a1.904 1.904 0 00-1.903-1.903v1.515zm.387.388V9.51h1.516V6.154H9.897zm0 3.357a.387.387 0 01-.387.388v1.515c1.05 0 1.903-.852 1.903-1.903H9.897zm-.387.388H6.153v1.515h3.358V9.9zm-3.358 0a.387.387 0 01-.387-.388H4.25c0 1.051.852 1.903 1.903 1.903V9.9zm-.387-.388V6.154H4.25V9.51h1.515zm0-3.357a.387.387 0 01.387-.388V4.251c-1.05 0-1.903.852-1.903 1.903h1.516zm16.683 10.494l-2.374-2.374-1.072 1.071 2.375 2.375 1.071-1.072zm-2.374-2.374a.387.387 0 010-.548l-1.072-1.072a1.903 1.903 0 000 2.691l1.072-1.071zm0-.548l2.374-2.374-1.071-1.072-2.375 2.374 1.072 1.072zm2.374-2.374a.387.387 0 01.548 0l1.071-1.072a1.903 1.903 0 00-2.69 0l1.071 1.072zm.548 0l2.374 2.374 1.072-1.072-2.375-2.374-1.071 1.072zm2.374 2.374a.387.387 0 010 .548l1.072 1.071a1.903 1.903 0 000-2.69l-1.072 1.071zm0 .548l-2.374 2.374 1.072 1.072 2.374-2.375-1.072-1.071zm-2.374 2.374a.387.387 0 01-.548 0l-1.071 1.072a1.903 1.903 0 002.69 0l-1.071-1.072z"/><path fill="currentColor" d="M18.102 6.153v3.358h-1.515V6.153h1.515zm0 3.358c0 .214.173.388.387.388v1.515a1.903 1.903 0 01-1.903-1.903h1.516zm.387.388h3.358v1.515h-3.358V9.9zm3.358 0a.387.387 0 00.387-.388h1.516a1.903 1.903 0 01-1.903 1.903V9.9zm.387-.388V6.153h1.516v3.358h-1.516zm0-3.358a.387.387 0 00-.387-.387V4.25c1.05 0 1.903.852 1.903 1.903h-1.516zm-.387-.387h-3.358V4.25h3.358v1.516zm-3.358 0a.387.387 0 00-.387.387h-1.515c0-1.05.851-1.902 1.902-1.902v1.515z"/><path fill="currentColor" d="M16.647 5.551l-2.374 2.374 1.072 1.072 2.374-2.374-1.072-1.072zm-2.374 2.374a.387.387 0 01-.548 0l-1.071 1.072a1.903 1.903 0 002.69 0l-1.071-1.072zm-.548 0l-2.374-2.374-1.072 1.072 2.375 2.374 1.071-1.072zm-2.374-2.374a.387.387 0 010-.548l-1.072-1.071a1.903 1.903 0 000 2.69l1.072-1.071zm0-.548l2.374-2.374-1.071-1.072-2.375 2.375 1.072 1.071zm2.374-2.374a.387.387 0 01.548 0l1.072-1.072a1.903 1.903 0 00-2.691 0l1.071 1.072zm.548 0l2.374 2.374 1.072-1.071-2.374-2.375-1.072 1.072zm2.374 2.374a.387.387 0 010 .548l1.072 1.072a1.903 1.903 0 000-2.691l-1.072 1.071zm1.841 13.1h3.358v-1.515h-3.358v1.515zm3.358 0a.387.387 0 01.387.388h1.516a1.903 1.903 0 00-1.903-1.903v1.515zm.387.388v3.357h1.516v-3.357h-1.516zm0 3.357a.387.387 0 01-.387.388v1.515a1.903 1.903 0 001.903-1.903h-1.516zm-.387.388h-3.358v1.515h3.358v-1.515zm-3.358 0a.387.387 0 01-.387-.388h-1.515c0 1.051.852 1.903 1.903 1.903v-1.515zm-.387-.388v-3.357h-1.515v3.357H18.1zm0-3.357a.387.387 0 01.387-.388v-1.515c-1.05 0-1.902.852-1.902 1.903H18.1zm-11.956-.388h3.357v-1.515H6.145v1.515zm3.357 0c.214 0 .388.174.388.388h1.515a1.903 1.903 0 00-1.903-1.903v1.515zm.388.388v3.357h1.515v-3.357H9.89zm0 3.357a.387.387 0 01-.388.388v1.515a1.903 1.903 0 001.903-1.903H9.89zm-.388.388H6.145v1.515h3.357v-1.515zm-3.357 0a.387.387 0 01-.388-.388H4.242c0 1.051.852 1.903 1.903 1.903v-1.515zm-.388-.388v-3.357H4.242v3.357h1.515zm0-3.357a.387.387 0 01.388-.388v-1.515a1.903 1.903 0 00-1.903 1.903h1.515z"/></svg><svg fill="none" viewBox="0 0 24 24" id="heart" xmlns="http://www.w3.org/2000/svg"><path d="M18.75 4.414a5.255 5.255 0 011.708 1.177 5.445 5.445 0 011.141 1.762 5.58 5.58 0 010 4.158 5.446 5.446 0 01-1.141 1.761l-1.014 1.047-4.572 4.717a4 4 0 01-5.745 0l-4.571-4.717-1.014-1.047A5.52 5.52 0 012 9.432a5.52 5.52 0 011.542-3.84A5.183 5.183 0 017.264 4c1.396 0 2.734.572 3.721 1.59a1.412 1.412 0 002.029 0 5.255 5.255 0 011.708-1.177 5.122 5.122 0 014.028 0z" stroke="currentColor" stroke-width="1.5" stroke-linecap="round" stroke-linejoin="round"/></svg><svg fill="none" viewBox="0 0 24 24" id="home" xmlns="http://www.w3.org/2000/svg"><path d="M3 11.161A2 2 0 013.75 9.6l7-5.6a2 2 0 012.5 0l7 5.6a2 2 0 01.75 1.56V19a2 2 0 01-2 2H5a2 2 0 01-2-2v-7.839z" stroke="currentColor" stroke-width="1.5"/><path d="M12 21v-7" stroke="currentColor" stroke-width="1.5" stroke-linecap="round"/></svg><svg fill="none" viewBox="0 0 24 24" id="info" xmlns="http://www.w3.org/2000/svg"><path fill="currentColor" d="M10.712 14.937v-.127c.009-.829.089-1.488.24-1.978.156-.49.377-.887.662-1.19.285-.303.63-.579 1.032-.828.26-.17.493-.359.7-.568.208-.21.372-.45.493-.722.121-.272.182-.572.182-.902 0-.397-.09-.74-.272-1.03a1.835 1.835 0 00-.727-.667 2.077 2.077 0 00-1-.241c-.332 0-.65.071-.953.214a1.823 1.823 0 00-.753.668c-.199.299-.313.684-.344 1.156H8c.03-.802.227-1.479.59-2.031a3.481 3.481 0 011.44-1.263A4.59 4.59 0 0112.024 5c.796 0 1.492.154 2.089.461.597.303 1.06.728 1.388 1.276.334.544.5 1.179.5 1.905 0 .499-.076.949-.227 1.35-.152.396-.368.75-.649 1.062-.277.312-.61.588-1 .83a4.406 4.406 0 00-.895.734 2.36 2.36 0 00-.493.902c-.103.348-.16.778-.168 1.29v.127h-1.856zm.98 4.063c-.355 0-.66-.13-.915-.388a1.313 1.313 0 01-.383-.948c0-.366.128-.678.383-.936a1.23 1.23 0 01.915-.394c.35 0 .653.131.908.394.26.258.39.57.39.935a1.363 1.363 0 01-.649 1.156c-.195.12-.411.181-.65.181z"/><circle cx="12" cy="12" r="11.5" stroke="currentColor"/></svg><svg fill="none" viewBox="0 0 24 24" id="minus" xmlns="http://www.w3.org/2000/svg"><path d="M4 12h16" stroke="currentColor" stroke-width="1.5" stroke-linecap="round"/></svg><svg fill="none" viewBox="0 0 16 16" id="mts-split" xmlns="http://www.w3.org/2000/svg"><path d="M12.308 3.692H3.692v3.693h4.923v4.923h3.693V3.692z" fill="currentColor"/><path d="M3.692 8.615h3.693v3.693H3.692V8.615z" fill="currentColor"/></svg><svg fill="none" viewBox="0 0 24 24" id="pass-hide" xmlns="http://www.w3.org/2000/svg"><path fill-rule="evenodd" clip-rule="evenodd" d="M18.016 6.923C16.367 5.975 14.341 5.25 12 5.25c-3.074 0-5.606 1.25-7.453 2.615a17.168 17.168 0 00-3.483 3.455 1.187 1.187 0 00-.07 1.313c.523.888 2.422 3.726 6.109 5.204l1.17-1.171c-3.426-1.14-5.266-3.635-5.88-4.618a15.8 15.8 0 013.045-2.977C7.121 7.83 9.346 6.75 12 6.75c1.862 0 3.512.53 4.913 1.277l1.103-1.104zM15.26 9.68a4 4 0 10-5.58 5.58l1.085-1.085A2.499 2.499 0 0112 9.5a2.5 2.5 0 012.174 1.265L15.26 9.68zm-.843 2.965l1.494-1.494a4 4 0 01-4.759 4.759l1.494-1.494a2.505 2.505 0 001.771-1.771zm-4.442 4.441A12.32 12.32 0 0012 17.25c5.871 0 8.8-3.91 9.607-5.202a15.802 15.802 0 00-3.379-3.216l1.076-1.076.149.109a17.167 17.167 0 013.483 3.455c.285.385.314.898.07 1.313-.718 1.22-4.031 6.117-11.006 6.117a13.52 13.52 0 01-3.295-.395l1.27-1.269z" fill="currentColor"/><path fill-rule="evenodd" clip-rule="evenodd" d="M20.53 3.47a.75.75 0 010 1.06l-16 16a.75.75 0 01-1.06-1.06l16-16a.75.75 0 011.06 0z" fill="currentColor"/></svg><svg fill="none" viewBox="0 0 24 24" id="pass-show" xmlns="http://www.w3.org/2000/svg"><path fill-rule="evenodd" clip-rule="evenodd" d="M2.394 12.048C3.2 13.34 6.129 17.25 12 17.25s8.8-3.91 9.607-5.202a15.802 15.802 0 00-3.045-2.977C16.879 7.83 14.654 6.75 12 6.75c-2.654 0-4.88 1.079-6.562 2.321a15.8 15.8 0 00-3.044 2.977zm2.153-4.183C6.394 6.5 8.927 5.25 12 5.25c3.074 0 5.606 1.25 7.453 2.615a17.167 17.167 0 013.483 3.455c.285.385.314.898.07 1.313-.718 1.22-4.031 6.117-11.006 6.117-6.975 0-10.288-4.897-11.006-6.117a1.187 1.187 0 01.07-1.313 17.168 17.168 0 013.483-3.455z" fill="currentColor"/><path fill-rule="evenodd" clip-rule="evenodd" d="M12 14.5a2.5 2.5 0 100-5 2.5 2.5 0 000 5zm0 1.5a4 4 0 100-8 4 4 0 000 8z" fill="currentColor"/></svg><svg fill="none" viewBox="0 0 24 24" id="plus" xmlns="http://www.w3.org/2000/svg"><path d="M4 12h16m-8-8v16" stroke="currentColor" stroke-width="1.5" stroke-linecap="round"/></svg><svg fill="none" viewBox="0 0 24 24" id="profile" xmlns="http://www.w3.org/2000/svg"><path d="M21 22v-3.562c0-3.328-2.607-6.027-5.823-6.027H8.824C5.607 12.411 3 15.11 3 18.438V22m8.265-12.877h1.588c1.462 0 2.647-1.226 2.647-2.74V4.74C15.5 3.227 14.315 2 12.853 2h-1.588C9.803 2 8.618 3.227 8.618 4.74v1.644c0 1.513 1.185 2.74 2.647 2.74z" stroke="currentColor" stroke-width="1.5" stroke-linecap="round"/></svg><svg fill="none" viewBox="0 0 24 24" id="search-clear" xmlns="http://www.w3.org/2000/svg"><path d="M7 17L17 7M7 7l10 10" stroke="currentColor" stroke-width="1.5" stroke-linecap="round"/></svg><svg fill="none" viewBox="0 0 24 24" id="share" xmlns="http://www.w3.org/2000/svg"><path d="M20 14.667v3.2A2.134 2.134 0 0117.867 20H6.133A2.134 2.134 0 014 17.867V6.133A2.133 2.133 0 016.133 4h3.2M13.6 4H20m0 0v6.4M20 4l-8 8" stroke="currentColor" stroke-width="1.5" stroke-linecap="round" stroke-linejoin="round"/></svg><svg fill="none" viewBox="0 0 24 24" id="unmute" xmlns="http://www.w3.org/2000/svg"><path fill-rule="evenodd" fill="currentColor" d="M11.553 3.064A.75.75 0 0112 3.75v16.5a.75.75 0 01-1.255.555L5.46 16H2.75A1.75 1.75 0 011 14.25v-4.5C1 8.784 1.784 8 2.75 8h2.71l5.285-4.805a.75.75 0 01.808-.13zM10.5 5.445l-4.245 3.86a.75.75 0 01-.505.195h-3a.25.25 0 00-.25.25v4.5c0 .138.112.25.25.25h3a.75.75 0 01.505.195l4.245 3.86V5.445z"/><path fill="currentColor" d="M18.718 4.222a.75.75 0 011.06 0c4.296 4.296 4.296 11.26 0 15.556a.75.75 0 01-1.06-1.06 9.5 9.5 0 000-13.436.75.75 0 010-1.06z"/><path fill="currentColor" d="M16.243 7.757a.75.75 0 10-1.061 1.061 4.5 4.5 0 010 6.364.75.75 0 001.06 1.06 6 6 0 000-8.485z"/></svg></svg>