<svg width="20" height="20" viewBox="0 0 20 20" fill="none" xmlns="http://www.w3.org/2000/svg">
<mask id="mask0_8226_7418" style="mask-type:alpha" maskUnits="userSpaceOnUse" x="1" y="1" width="18" height="17">
<path d="M9.11372 1.78503C9.4765 1.07166 10.5235 1.07166 10.8863 1.78503L12.8248 5.59687C12.9688 5.87995 13.2467 6.0762 13.5683 6.12182L17.9032 6.73682C18.7141 6.85186 19.0371 7.82048 18.4497 8.37574L15.3159 11.3384C15.0824 11.5591 14.9758 11.8775 15.031 12.1894L15.7705 16.3748C15.9092 17.1594 15.0618 17.7579 14.3365 17.3877L10.4598 15.4088C10.1719 15.2619 9.8281 15.2619 9.54024 15.4088L5.66355 17.3877C4.93824 17.7579 4.09083 17.1594 4.22947 16.3748L4.96903 12.1894C5.02416 11.8775 4.91758 11.5591 4.6841 11.3384L1.55026 8.37574C0.962927 7.82048 1.28595 6.85186 2.09683 6.73682L6.43174 6.12182C6.7533 6.0762 7.03124 5.87995 7.1752 5.59688L9.11372 1.78503Z" fill="#FFD480"/>
</mask>
<g mask="url(#mask0_8226_7418)">
<path d="M9.11372 1.78503C9.4765 1.07166 10.5235 1.07166 10.8863 1.78503L12.8248 5.59687C12.9688 5.87995 13.2467 6.0762 13.5683 6.12182L17.9032 6.73682C18.7141 6.85186 19.0371 7.82048 18.4497 8.37574L15.3159 11.3384C15.0824 11.5591 14.9758 11.8775 15.031 12.1894L15.7705 16.3748C15.9092 17.1594 15.0618 17.7579 14.3365 17.3877L10.4598 15.4088C10.1719 15.2619 9.8281 15.2619 9.54024 15.4088L5.66355 17.3877C4.93824 17.7579 4.09083 17.1594 4.22947 16.3748L4.96903 12.1894C5.02416 11.8775 4.91758 11.5591 4.6841 11.3384L1.55026 8.37574C0.962927 7.82048 1.28595 6.85186 2.09683 6.73682L6.43174 6.12182C6.7533 6.0762 7.03124 5.87995 7.1752 5.59688L9.11372 1.78503Z" fill="#FFB119"/>
</g>
</svg>
