<svg width="116" height="32" viewBox="0 0 116 32" fill="none" xmlns="http://www.w3.org/2000/svg">
<path fill-rule="evenodd" clip-rule="evenodd" d="M60.3905 8.23506V8.27508H53.2774C52.8765 9.61752 52.536 10.9803 52.1955 12.3227L59.3289 12.3431L57.4255 19.6766V19.7166H50.3117C49.9312 21.0788 49.5906 22.4409 49.2298 23.8043L56.3829 23.8233L54.4794 31.2369V31.2776H38.5703L39.4915 27.7109L53.6383 27.6906L53.9985 26.4282L39.8124 26.4078C40.1732 25.0254 40.5341 23.6232 40.8943 22.2211H47.7272L48.0678 20.9574L41.2355 20.9383L42.2971 16.8507H56.4432C56.5836 16.4301 56.6637 15.9688 56.7844 15.5286L42.6376 15.5089C42.9578 14.1461 43.3587 12.8037 43.6796 11.4416H50.5118L50.8327 10.2192L43.9998 10.1995L45.0417 6.13151H59.1885C59.3282 5.69125 59.4089 5.25033 59.5297 4.80941L45.3829 4.78907L46.4248 0.74208H62.3339L60.3905 8.23506ZM77.4013 12.9841L77.4216 13.0044L78.2634 11.4416H89.9851L90.3053 10.1995L78.9845 10.1588L81.2081 6.15185L91.3676 6.11117C91.487 5.67091 91.588 5.22999 91.6878 4.78907L81.9896 4.76873L84.2335 0.741424H93.9921L86.1573 31.2573H78.644C78.9642 30.0756 79.245 28.8722 79.5652 27.6702H85.8161L86.1376 26.4282L79.9057 26.4078L80.8873 22.2401L87.1986 22.2211C87.3396 21.8202 87.4394 21.3793 87.5397 20.9574L81.3078 20.9383L82.3307 16.8507H88.6027C88.7234 16.4098 88.8231 15.9688 88.9629 15.5286L82.5709 15.5082C82.712 14.7871 82.8924 14.0654 83.0321 13.364L73.9553 31.2363L71.1306 31.2566V27.6899H74.1961C74.4165 27.2693 74.6166 26.8481 74.8371 26.4275L71.1313 26.4072V22.2204H76.961C77.1815 21.8195 77.3829 21.3786 77.6033 20.9567L71.132 20.9377V16.85H79.6872C79.9077 16.4091 80.1485 15.9682 80.3486 15.5279L71.132 15.5076C71.132 14.7458 71.151 13.9847 71.132 13.2433L66.4433 31.2566H58.8873L59.8085 27.6899H65.5391C65.6599 27.289 65.7596 26.8684 65.8803 26.4478L60.13 26.4275L61.2113 22.2204H66.9419C67.0417 21.7985 67.142 21.3786 67.2621 20.9567L61.5518 20.9377C61.8917 19.5756 62.2736 18.2121 62.6128 16.8303H68.3231C68.4641 16.4084 68.5435 15.9478 68.6643 15.5273L62.954 15.5069L63.9959 11.4396H75.738L75.757 10.1975L64.3154 10.1772L65.3574 6.14988H75.4571V4.80745L65.7189 4.78711L66.7608 0.740112H76.6795L77.4013 12.9841ZM115.312 4.76873L113.91 10.1588L106.134 10.1792C106.294 9.55781 106.455 8.93711 106.636 8.31576L104.111 8.29608C103.73 9.61883 103.41 10.981 103.069 12.3234L108.619 12.3634L112.446 15.8698L109.441 27.6709L103.19 31.2579H95.7354L90.9464 27.6709L90.9273 27.6518H107.798L108.14 26.4295L91.2278 26.4091L92.3301 22.2414L100.505 22.2224L100.124 23.7846L102.609 23.805L103.03 22.2224H109.182C109.302 21.8005 109.442 21.3996 109.542 20.9587L103.371 20.9397C103.431 20.5388 103.591 20.1582 103.652 19.7376L97.3403 19.7173C96.4381 18.7547 95.4769 17.8145 94.5557 16.852L110.564 16.833C110.685 16.392 110.805 15.9505 110.944 15.5299L94.0544 15.5095C94.389 14.1573 94.7364 12.8082 95.0964 11.4625L101.788 11.4422C101.909 11.0413 101.988 10.6004 102.15 10.2002L95.4165 10.1798C95.7367 8.81704 96.1383 7.49495 96.4585 6.15251L113.329 6.13216L113.671 4.78973L96.7793 4.76939L103.612 0.74208H111.026L115.312 4.76873Z" fill="#0089DA"/>
<path fill-rule="evenodd" clip-rule="evenodd" d="M41.2166 3.80685H11.9822L10.9403 2.60483H7.59402L8.27574 0H42.1982L41.2166 3.80685ZM39.7738 9.35769H16.7706L15.2484 7.59402H6.31195L6.87294 5.43011H40.7954L39.7738 9.35769ZM38.3913 14.7471H21.4193L19.4758 12.4835H5.06924L5.49048 10.8202H39.4129L38.3913 14.7471ZM37.0482 19.8971H25.8678L23.5635 17.2129H3.84753L4.1277 16.0902H38.0705L37.0482 19.8971ZM35.6258 25.2668H30.4962L27.7516 22.0807H2.60483L2.82529 21.1201L24.1849 21.0991H36.7077L35.6258 25.2668ZM34.4237 29.8748L32.0387 27.0699L1.30241 27.0508L1.42248 26.4688L35.3252 26.4892L34.4237 29.8748ZM33.8627 31.979L0 32L0.120072 31.458H34.0432L33.8627 31.979Z" fill="#FF9B00"/>
</svg>
