<svg width="85" height="44" viewBox="0 0 85 44" fill="none" xmlns="http://www.w3.org/2000/svg">
<path d="M0 8C0 3.58172 3.58172 0 8 0H76.6154C81.0337 0 84.6154 3.58172 84.6154 8V36C84.6154 40.4183 81.0337 44 76.6154 44H7.99999C3.58171 44 0 40.4183 0 36V8Z" fill="white"/>
<path fill-rule="evenodd" clip-rule="evenodd" d="M19.5171 27.208H16.6674C12.2223 27.208 15.4517 17.9016 19.1939 17.9016H23.6963C24.418 17.9016 25.6908 18.0324 26.3178 16.2724L27.2866 13.5385H21.1127C17.7692 13.5385 15.1667 14.6993 13.2861 16.647C10.0375 19.9801 8.93593 25.1858 9.71467 27.6761C10.4556 29.9795 12.4692 31.496 15.6226 31.5335L18.0732 31.5523H21.0938L21.8346 29.3615C22.3854 27.8072 21.1505 27.208 19.5171 27.208ZM54.2046 23.3507L55.1356 20.3733H45.2004C43.5477 20.3733 42.8068 20.8227 42.5218 21.759L41.5909 24.7364H51.5263C53.179 24.7364 53.9199 24.2869 54.2046 23.3507ZM40.1094 28.5938L39.1784 31.5709H49.1136C50.7473 31.5709 51.5071 31.1217 51.7921 30.1854L52.7231 27.208H42.7876C41.1542 27.208 40.4133 27.6575 40.1094 28.5938ZM56.5224 16.5344L57.4531 13.5573H47.518C45.8653 13.5573 45.1244 14.0065 44.8394 14.9427L43.9084 17.9201H53.8439C55.4776 17.9201 56.2182 17.4707 56.5224 16.5344ZM41.5149 17.1338C41.0971 14.3624 39.5964 13.5573 35.9491 13.5573H29.3003L25.425 24.7364H27.8756C29.3381 24.7364 30.079 24.7549 30.858 22.6952L32.4726 17.9016H34.9421C37.0509 17.9016 36.5758 20.5044 35.5121 23.0321C34.5622 25.2606 32.9095 27.2266 30.9148 27.2266H26.7926C25.14 27.2266 24.3801 27.6761 24.0762 28.6123L23.0503 31.5897H26.0707L29.0342 31.5709C31.6557 31.5523 33.8024 31.3652 36.31 29.1366C38.9694 26.7586 42.047 20.6541 41.5149 17.1338ZM74.911 13.5385H69.1551L63.7409 19.2121C63.1141 19.8676 62.4682 20.523 61.8414 21.2907H61.7843L64.4818 13.5385H59.7896L53.464 31.5709H58.1559L60.1695 25.8972L62.2592 24.1558L63.9121 29.2866C64.4248 30.8783 64.9569 31.5709 66.0966 31.5709H69.6869L66.0017 21.4967L74.911 13.5385Z" fill="#00B33C"/>
</svg>
