<svg width="24" height="24" viewBox="0 0 24 24" fill="none" xmlns="http://www.w3.org/2000/svg">
<path fill-rule="evenodd" clip-rule="evenodd" d="M12.7123 20.5303C12.4194 20.2374 12.4194 19.7626 12.7123 19.4697L18.591 13.591C18.8366 13.3454 19.0136 13.0571 19.1219 12.75L4 12.75C3.58579 12.75 3.25 12.4142 3.25 12C3.25 11.5858 3.58579 11.25 4 11.25L19.1219 11.25C19.0136 10.9429 18.8366 10.6546 18.591 10.409L12.7123 4.53033C12.4194 4.23744 12.4194 3.76256 12.7123 3.46967C13.0052 3.17678 13.4801 3.17678 13.773 3.46967L19.6516 9.34835C21.1161 10.8128 21.1161 13.1872 19.6517 14.6516L13.773 20.5303C13.4801 20.8232 13.0052 20.8232 12.7123 20.5303Z" fill="#AFA9BA"/>
</svg>
