<svg width="65" height="37" viewBox="0 0 65 37" fill="none" xmlns="http://www.w3.org/2000/svg">
<g clip-path="url(#clip0_4645_31074)">
<path fill-rule="evenodd" clip-rule="evenodd" d="M12.4971 20.3418L16.9568 23.3218V28.8484L12.4766 37L12.4971 20.3418Z" fill="#62B22F"/>
<path fill-rule="evenodd" clip-rule="evenodd" d="M8.80038 17.9883L13.2498 20.608L0.0390625 28.7596L4.35098 20.7868L8.80038 17.9883Z" fill="#974995"/>
<path fill-rule="evenodd" clip-rule="evenodd" d="M29.5472 10.4567L21.0455 10.4137L16.9507 7.91272L12.5 0L29.5472 10.4567Z" fill="#EE7024"/>
<path fill-rule="evenodd" clip-rule="evenodd" d="M12.5035 0L16.9542 7.91272L16.9632 18.8159L12.4766 17.4231L12.5035 0Z" fill="#FBB61B"/>
<path fill-rule="evenodd" clip-rule="evenodd" d="M0 7.961L4.36203 16.0173L4.3479 20.7869L0.0359755 28.7596L0 7.961Z" fill="#5A58A3"/>
<path fill-rule="evenodd" clip-rule="evenodd" d="M0 7.961L29.4806 26.2861L21.0328 26.3461L4.36203 16.0173L0 7.961Z" fill="#2188CB"/>
<path fill-rule="evenodd" clip-rule="evenodd" d="M21.0479 10.4136L29.5497 10.4566L16.966 18.3159L16.9531 12.9485L21.0479 10.4136Z" fill="#DA0954"/>
<path fill-rule="evenodd" clip-rule="evenodd" d="M45.5632 11.7125C46.6191 10.7608 47.9955 10.2592 49.4062 10.3119C50.8619 10.2819 52.3279 10.3824 53.7746 10.2075C53.4611 11.1839 52.8251 12.0349 52.4011 12.9643C51.3578 12.9839 50.3133 12.9447 49.2713 12.9813C47.9312 13.0922 46.654 14.1952 46.523 15.5827C47.7423 14.3479 49.6503 14.2644 51.2306 14.669C52.2894 15.0345 53.2324 15.8438 53.6166 16.9272C53.9686 17.8844 54.0317 18.9265 53.7978 19.9202C53.447 21.2791 52.3716 22.3311 51.0996 22.8285C49.5848 23.4171 47.9094 23.4171 46.3945 22.8285C44.9812 22.2437 43.9816 20.8862 43.6398 19.3968C43.2659 18.0719 43.316 16.1101 43.6989 14.763C44.034 13.5929 44.6768 12.5378 45.5581 11.7112L45.5632 11.7125ZM49.1813 16.8867C48.386 16.7262 47.4905 17.0564 47.078 17.7665C46.329 19.0548 47.3581 20.9815 49.0374 20.7387C50.8696 20.4776 51.3501 17.4754 49.1813 16.8867ZM37.3428 13.5517C38.99 13.1405 40.8736 13.2606 42.2805 14.3035C41.8153 15.0658 41.3952 15.8542 40.9686 16.6387C40.2812 16.4064 39.6131 16.037 38.8692 16.0553C38.0803 16.0305 37.2259 16.3437 36.7775 17.0329C36.5403 17.4002 36.411 17.8285 36.4046 18.2676C36.3982 18.7068 36.5151 19.1388 36.7415 19.513C37.1552 20.2152 37.9685 20.5403 38.7407 20.6134C39.3433 20.5442 39.9562 20.458 40.5138 20.1983C40.649 20.1275 40.8031 20.1028 40.9532 20.1278C41.2256 20.9188 41.8218 21.5728 42.0569 22.3729C40.5395 23.1965 38.7304 23.3649 37.0692 22.9551C35.9244 22.6131 34.8335 21.9474 34.1783 20.911C33.1414 19.295 33.1812 17.0094 34.3723 15.4875C35.0905 14.5033 36.189 13.8624 37.3428 13.5556V13.5517ZM55.3987 13.5935C58.5988 13.57 61.7993 13.57 65.0003 13.5935C64.972 16.6818 64.99 19.7727 64.9926 22.8611C63.9159 22.8611 62.8379 22.8689 61.7612 22.8611C61.8113 20.834 61.7111 18.8147 61.774 16.7888C61.7799 16.6349 61.7429 16.4825 61.6674 16.349C60.6845 16.3711 59.699 16.3724 58.7123 16.349C58.6506 18.5157 58.7007 20.6878 58.6879 22.8572C57.5919 22.8767 56.4959 22.8663 55.4012 22.8572C55.4064 19.7701 55.4192 16.6818 55.3987 13.5935Z" fill="#1B1537"/>
<path fill-rule="evenodd" clip-rule="evenodd" d="M16.9568 28.8484L21.0349 26.3462L29.4827 26.2861L12.4766 37L16.9568 28.8484Z" fill="#037F37"/>
</g>
<defs>
<clipPath id="clip0_4645_31074">
<rect width="65" height="37" fill="white"/>
</clipPath>
</defs>
</svg>
