<svg width="80" height="40" viewBox="0 0 80 40" fill="none" xmlns="http://www.w3.org/2000/svg">
<path d="M25.9428 30.993L29.6572 9.19561H35.5985L31.8813 30.993H25.9428ZM53.3465 9.6655C52.1697 9.2239 50.3251 8.75 48.0218 8.75C42.1509 8.75 38.0158 11.7064 37.9803 15.9435C37.9473 19.0756 40.9327 20.823 43.1863 21.8655C45.4991 22.9342 46.2764 23.6155 46.2653 24.5694C46.2505 26.0306 44.4185 26.6978 42.7106 26.6978C40.3328 26.6978 39.0694 26.3674 37.1182 25.5539L36.3523 25.2075L35.5187 30.087C36.9064 30.6957 39.4724 31.2226 42.137 31.25C48.3824 31.25 52.4368 28.3274 52.4829 23.8025C52.5051 21.3228 50.9223 19.436 47.4944 17.8802C45.4178 16.8718 44.146 16.1989 44.1595 15.1779C44.1595 14.2718 45.236 13.303 47.5622 13.303C49.5048 13.2728 50.9125 13.6965 52.009 14.1381L52.5414 14.3896L53.3465 9.6655ZM68.6357 9.19528H64.0448C62.6227 9.19528 61.5582 9.58344 60.9338 11.0029L52.11 30.9786H58.3489C58.3489 30.9786 59.3688 28.2928 59.5995 27.703C60.2813 27.703 66.3421 27.7124 67.2085 27.7124C67.3862 28.4756 67.9314 30.9786 67.9314 30.9786H73.4444L68.6357 9.19461V9.19528ZM61.3516 23.2707C61.8431 22.0148 63.7189 17.1773 63.7189 17.1773C63.6839 17.2354 64.2067 15.9153 64.5066 15.0969L64.9081 16.9762C64.9081 16.9762 66.0457 22.1794 66.2836 23.2704H61.3516V23.2707ZM20.8991 9.19528L15.0824 24.0602L14.4627 21.0394C13.3798 17.5571 10.0061 13.7844 6.23438 11.8956L11.5531 30.9583L17.8392 30.9513L27.1929 9.19506L20.8991 9.19495" fill="#0E4595"/>
<path d="M9.65639 9.19464H0.0759394L0 9.64816C7.45349 11.4524 12.3852 15.8127 14.4329 21.0524L12.3497 11.0355C11.9901 9.65528 10.947 9.2433 9.65662 9.1952" fill="#F2AE14"/>
</svg>
