<svg width="81" height="28" viewBox="0 0 81 28" fill="none" xmlns="http://www.w3.org/2000/svg">
<g clip-path="url(#clip0_4677_31576)">
<path d="M58.7422 13.3973V26H65.7437V18.5317H73.6787C77.0161 18.5084 79.8517 16.3729 80.9253 13.3973H58.7422Z" fill="#37A72E"/>
<path d="M57.8047 3.01184C58.2131 8.15795 63.0908 12.2305 69.0421 12.2305C69.0654 12.2305 81.2131 12.2305 81.2131 12.2305C81.3064 11.7637 81.3531 11.2736 81.3531 10.7718C81.3531 6.50092 77.9107 3.04685 73.6514 3.01184H57.8047Z" fill="url(#paint0_linear_4677_31576)"/>
<path d="M47.4404 12.1021C47.5221 11.9621 47.6504 11.8804 47.8138 11.8804C48.0472 11.8804 48.2222 12.0671 48.2339 12.2888V25.8834H55.2354V3.01184H48.2339C47.347 3.04685 46.3435 3.68865 45.9701 4.49383L40.4039 16.4431C40.3922 16.4897 40.3689 16.5364 40.3455 16.5831C40.2639 16.6998 40.1238 16.7815 39.9605 16.7815C39.7037 16.7815 39.4937 16.5714 39.4937 16.3147V3.01184H32.4922V25.8834H39.4937C40.3689 25.8367 41.3491 25.1949 41.7225 24.4014L47.4404 12.1371C47.4287 12.1255 47.4404 12.1138 47.4404 12.1021Z" fill="#37A72E"/>
<path d="M21.3047 12.4987L17.2089 25.8832H12.1678L8.08357 12.487C8.04857 12.277 7.86186 12.1136 7.62847 12.1136C7.37175 12.1136 7.17338 12.3237 7.17338 12.5687V25.8716H0.171875V3H6.1815H7.96688C9.25049 3 10.6041 4.00355 10.9775 5.22881L14.3849 16.3729C14.56 16.933 14.8284 16.9213 15.0034 16.3729L18.4108 5.22881C18.7842 3.99188 20.1378 3 21.4214 3H23.2068H29.2164V25.8716H22.2149V12.5687C22.2149 12.5687 22.2149 12.5687 22.2149 12.5571C22.2149 12.3003 22.0049 12.102 21.7598 12.102C21.5265 12.1136 21.3398 12.277 21.3047 12.4987Z" fill="#37A72E"/>
</g>
<defs>
<linearGradient id="paint0_linear_4677_31576" x1="57.8075" y1="7.62118" x2="81.3517" y2="7.62118" gradientUnits="userSpaceOnUse">
<stop stop-color="#00A0E5"/>
<stop offset="1" stop-color="#0077C3"/>
</linearGradient>
<clipPath id="clip0_4677_31576">
<rect width="81" height="28" fill="white"/>
</clipPath>
</defs>
</svg>
