<svg width="126" height="32" viewBox="0 0 126 32" fill="none" xmlns="http://www.w3.org/2000/svg">
<path d="M36.8306 25.2757V4.85384H44.1006C47.631 4.85384 50.3236 5.71002 52.1785 7.42197C54.0334 9.13392 54.9609 11.6816 54.9609 15.0648C54.9609 18.448 54.0334 20.9956 52.1785 22.7076C50.3236 24.4196 47.631 25.2757 44.1006 25.2757H36.8306ZM41.1986 21.5154H44.0408C46.3744 21.5154 48.0398 20.9854 49.0371 19.9256C50.0344 18.8454 50.533 17.2252 50.533 15.0648C50.533 12.9044 50.0344 11.2943 49.0371 10.2344C48.0398 9.15435 46.3744 8.61431 44.0408 8.61431H41.1986V21.5154ZM64.5934 25.5814C63.0973 25.5814 61.761 25.2757 60.5843 24.6642C59.4275 24.0324 58.52 23.156 57.8618 22.0351C57.2035 20.8937 56.8745 19.5792 56.8745 18.0914C56.8745 16.5832 57.2035 15.2686 57.8618 14.1476C58.52 13.0267 59.4275 12.1605 60.5843 11.5491C61.741 10.9173 63.0775 10.6014 64.5934 10.6014C66.1092 10.6014 67.4455 10.9173 68.6024 11.5491C69.7592 12.1605 70.6667 13.0267 71.3249 14.1476C71.983 15.2686 72.3122 16.5832 72.3122 18.0914C72.3122 19.5792 71.983 20.8937 71.3249 22.0351C70.6667 23.156 69.7592 24.0324 68.6024 24.6642C67.4455 25.2757 66.1092 25.5814 64.5934 25.5814ZM64.5934 21.9128C65.2915 21.9128 65.8998 21.7599 66.4184 21.4542C66.9567 21.1485 67.3657 20.7103 67.645 20.1396C67.9441 19.5486 68.0937 18.8658 68.0937 18.0914C68.0937 17.2965 67.9441 16.6137 67.645 16.0431C67.3657 15.4724 66.9567 15.0342 66.4184 14.7285C65.8998 14.4228 65.2915 14.2699 64.5934 14.2699C63.8952 14.2699 63.2769 14.4228 62.7385 14.7285C62.2199 15.0342 61.8109 15.4724 61.5118 16.0431C61.2325 16.6137 61.093 17.2965 61.093 18.0914C61.093 18.8658 61.2325 19.5486 61.5118 20.1396C61.8109 20.7103 62.2199 21.1485 62.7385 21.4542C63.2769 21.7599 63.8952 21.9128 64.5934 21.9128ZM75.1199 25.2757V4.85384H84.8431C86.4586 4.85384 87.805 5.03729 88.882 5.4042C89.979 5.7711 90.7969 6.34168 91.3353 7.11615C91.8939 7.87038 92.1731 8.86895 92.1731 10.1123C92.1731 11.2535 91.9237 12.2216 91.4251 13.0165C90.9265 13.791 90.1086 14.3718 88.9719 14.7591C90.3082 15.1056 91.2755 15.6966 91.8739 16.5322C92.4722 17.3678 92.7713 18.4276 92.7713 19.7116C92.7713 21.6274 92.1332 23.0337 90.8566 23.9305C89.5801 24.8273 87.5657 25.2757 84.8132 25.2757H75.1199ZM79.4878 21.6988H84.3047C85.3019 21.6988 86.0897 21.6172 86.6681 21.4542C87.2664 21.2708 87.6954 20.9854 87.9547 20.5982C88.214 20.211 88.3436 19.7015 88.3436 19.0696C88.3436 18.4378 88.214 17.9283 87.9547 17.5411C87.6954 17.1538 87.2664 16.8787 86.6681 16.7156C86.0897 16.5322 85.3019 16.4405 84.3047 16.4405H79.4878V21.6988ZM79.4878 13.0777H84.3047C85.6012 13.0777 86.4986 12.9044 86.9972 12.5579C87.4958 12.1911 87.7452 11.5898 87.7452 10.7542C87.7452 9.93892 87.4958 9.34791 86.9972 8.98101C86.5186 8.61431 85.621 8.43085 84.3047 8.43085H79.4878V13.0777ZM100.5 25.5814C98.9247 25.5814 97.678 25.1228 96.7606 24.2056C95.8431 23.2681 95.3843 21.8313 95.3843 19.8951V10.9071H99.5129V19.2531C99.5129 20.1498 99.7026 20.8224 100.081 21.2708C100.46 21.6988 101.029 21.9128 101.787 21.9128C102.684 21.9128 103.392 21.6173 103.911 21.0262C104.45 20.4148 104.719 19.5384 104.719 18.3971V10.9071H108.847V25.2757H104.928V23.5331C104.489 24.1649 103.901 24.6642 103.163 25.0311C102.445 25.3979 101.557 25.5814 100.5 25.5814ZM114.212 31.0231C113.534 31.0231 112.846 30.9415 112.148 30.7785C111.45 30.6155 110.871 30.4116 110.412 30.1671L111.52 27.0182C111.879 27.1609 112.257 27.2832 112.656 27.3851C113.075 27.5074 113.484 27.5685 113.883 27.5685C114.222 27.5685 114.541 27.5175 114.84 27.4156C115.159 27.3137 115.449 27.1609 115.708 26.9571C115.987 26.7736 116.227 26.5393 116.426 26.2539L110.742 10.9071H115.17L118.371 21.3319L121.602 10.9071H126L120.645 25.2757C120.146 26.6616 119.557 27.7723 118.879 28.6079C118.221 29.4639 117.493 30.0754 116.695 30.4422C115.917 30.8295 115.09 31.0231 114.212 31.0231Z" fill="#4C00C9"/>
<path d="M5.08935 12.554L7.74465 15.2093L8.94303 14.0108L6.28773 11.3555L5.08935 12.554ZM7.74465 15.2093C7.91381 15.3785 7.9138 15.6527 7.74467 15.8219L8.94309 17.0203C9.7741 16.1892 9.77405 14.8419 8.94303 14.0108L7.74465 15.2093ZM7.74467 15.8219L5.08952 18.4772L6.28793 19.6756L8.94309 17.0203L7.74467 15.8219ZM5.08952 18.4772C4.9204 18.6463 4.64615 18.6463 4.47699 18.4772L3.27859 19.6757C4.10961 20.5067 5.45693 20.5067 6.28793 19.6756L5.08952 18.4772ZM4.47699 18.4772L1.82169 15.8219L0.623292 17.0203L3.27859 19.6757L4.47699 18.4772ZM1.82169 15.8219C1.65252 15.6527 1.65254 15.3784 1.82166 15.2093L0.623225 14.0109C-0.207783 14.8419 -0.207723 16.1893 0.623292 17.0203L1.82169 15.8219ZM1.82166 15.2093L4.47681 12.554L3.27838 11.3555L0.623225 14.0109L1.82166 15.2093ZM4.47681 12.554C4.64594 12.3848 4.92018 12.3848 5.08935 12.554L6.28773 11.3555C5.45672 10.5245 4.10939 10.5245 3.27838 11.3555L4.47681 12.554Z" fill="#FFB119"/>
<path d="M11.5768 24.9643L14.232 22.3089L13.0336 21.1105L10.3784 23.7659L11.5768 24.9643ZM14.232 22.3089C14.4012 22.1397 14.6754 22.1397 14.8446 22.3089L16.0429 21.1104C15.2119 20.2794 13.8646 20.2794 13.0336 21.1105L14.232 22.3089ZM14.8446 22.3089L17.4998 24.9641L18.6982 23.7657L16.0429 21.1104L14.8446 22.3089ZM17.4998 24.9641C17.6689 25.1333 17.6689 25.4075 17.4998 25.5767L18.6982 26.7751C19.5292 25.9441 19.5292 24.5967 18.6982 23.7657L17.4998 24.9641ZM17.4998 25.5767L14.8445 28.2321L16.043 29.4305L18.6982 26.7751L17.4998 25.5767ZM14.8445 28.2321C14.6754 28.4013 14.4011 28.4013 14.232 28.2321L13.0336 29.4306C13.8646 30.2616 15.212 30.2616 16.043 29.4305L14.8445 28.2321ZM14.232 28.2321L11.5768 25.5769L10.3784 26.7753L13.0336 29.4306L14.232 28.2321ZM11.5768 25.5769C11.4077 25.4077 11.4076 25.1335 11.5768 24.9643L10.3784 23.7659C9.54738 24.5969 9.54736 25.9443 10.3784 26.7753L11.5768 25.5769Z" fill="#FFB119"/>
<path d="M5.76278 6.30732H9.51785V4.61246H5.76278V6.30732ZM9.51785 6.30732C9.7571 6.30732 9.95102 6.50127 9.95102 6.74046H11.6458C11.6458 5.56517 10.6931 4.61246 9.51785 4.61246V6.30732ZM9.95102 6.74046V10.4956H11.6458V6.74046H9.95102ZM9.95102 10.4956C9.95102 10.7348 9.7571 10.9287 9.51785 10.9287V12.6236C10.6931 12.6236 11.6458 11.6709 11.6458 10.4956H9.95102ZM9.51785 10.9287H5.76278V12.6236H9.51785V10.9287ZM5.76278 10.9287C5.52354 10.9287 5.32963 10.7348 5.32963 10.4956H3.63482C3.63482 11.6709 4.58756 12.6236 5.76278 12.6236V10.9287ZM5.32963 10.4956V6.74046H3.63482V10.4956H5.32963ZM5.32963 6.74046C5.32963 6.50127 5.52354 6.30732 5.76278 6.30732V4.61246C4.58756 4.61246 3.63482 5.56517 3.63482 6.74046H5.32963Z" fill="#FFB119"/>
<path d="M23.9876 18.4768L21.3323 15.8215L20.1339 17.02L22.7892 19.6753L23.9876 18.4768ZM21.3323 15.8215C21.1631 15.6523 21.1631 15.3781 21.3323 15.2089L20.1338 14.0105C19.3028 14.8415 19.3029 16.1889 20.1339 17.02L21.3323 15.8215ZM21.3323 15.2089L23.9874 12.5536L22.789 11.3551L20.1338 14.0105L21.3323 15.2089ZM23.9874 12.5536C24.1565 12.3845 24.4308 12.3844 24.5999 12.5536L25.7983 11.3551C24.9673 10.5241 23.62 10.5241 22.789 11.3551L23.9874 12.5536ZM24.5999 12.5536L27.2552 15.2089L28.4536 14.0104L25.7983 11.3551L24.5999 12.5536ZM27.2552 15.2089C27.4244 15.3781 27.4244 15.6524 27.2553 15.8215L28.4537 17.0199C29.2847 16.1889 29.2846 14.8415 28.4536 14.0104L27.2552 15.2089ZM27.2553 15.8215L24.6001 18.4768L25.7985 19.6753L28.4537 17.0199L27.2553 15.8215ZM24.6001 18.4768C24.431 18.646 24.1567 18.646 23.9876 18.4768L22.7892 19.6753C23.6202 20.5063 24.9675 20.5063 25.7985 19.6753L24.6001 18.4768Z" fill="#FFB119"/>
<path d="M19.1258 6.74013V10.4954H17.431V6.74013H19.1258ZM19.1258 10.4954C19.1258 10.7346 19.3198 10.9285 19.559 10.9285V12.6234C18.3837 12.6234 17.431 11.6707 17.431 10.4954H19.1258ZM19.559 10.9285H23.314V12.6234H19.559V10.9285ZM23.314 10.9285C23.5531 10.9285 23.7471 10.7346 23.7471 10.4954H25.4419C25.4419 11.6707 24.4892 12.6234 23.314 12.6234V10.9285ZM23.7471 10.4954V6.74013H25.4419V10.4954H23.7471ZM23.7471 6.74013C23.7471 6.50089 23.5531 6.30697 23.314 6.30697V4.61209C24.4892 4.61209 25.4419 5.56487 25.4419 6.74013H23.7471ZM23.314 6.30697H19.559V4.61209H23.314V6.30697ZM19.559 6.30697C19.3198 6.30697 19.1258 6.50089 19.1258 6.74013H17.431C17.431 5.56487 18.3837 4.61209 19.559 4.61209V6.30697Z" fill="#FFB119"/>
<path d="M17.4989 6.06647L14.8437 8.72188L16.0421 9.92032L18.6974 7.26492L17.4989 6.06647ZM14.8437 8.72188C14.6746 8.89104 14.4003 8.89105 14.2312 8.72191L13.0328 9.92038C13.8638 10.7514 15.2112 10.7514 16.0421 9.92032L14.8437 8.72188ZM14.2312 8.72191L11.576 6.06665L10.3776 7.26512L13.0328 9.92038L14.2312 8.72191ZM11.576 6.06665C11.4068 5.89752 11.4068 5.62327 11.576 5.4541L10.3775 4.25565C9.54655 5.0867 9.54654 6.43408 10.3776 7.26512L11.576 6.06665ZM11.576 5.4541L14.2312 2.79869L13.0328 1.60025L10.3775 4.25565L11.576 5.4541ZM14.2312 2.79869C14.4004 2.62952 14.6746 2.62953 14.8437 2.79866L16.0421 1.60018C15.2111 0.769137 13.8638 0.769197 13.0328 1.60025L14.2312 2.79869ZM14.8437 2.79866L17.499 5.45392L18.6974 4.25544L16.0421 1.60018L14.8437 2.79866ZM17.499 5.45392C17.6681 5.62305 17.6681 5.8973 17.4989 6.06647L18.6974 7.26492C19.5284 6.43387 19.5284 5.08648 18.6974 4.25544L17.499 5.45392Z" fill="#FFB119"/>
<path d="M19.5581 20.1043H23.3132V18.4094H19.5581V20.1043ZM23.3132 20.1043C23.5524 20.1043 23.7464 20.2982 23.7464 20.5374H25.4411C25.4411 19.3622 24.4884 18.4094 23.3132 18.4094V20.1043ZM23.7464 20.5374V24.2926H25.4411V20.5374H23.7464ZM23.7464 24.2926C23.7464 24.5318 23.5524 24.7257 23.3132 24.7257V26.4206C24.4884 26.4206 25.4411 25.4679 25.4411 24.2926H23.7464ZM23.3132 24.7257H19.5581V26.4206H23.3132V24.7257ZM19.5581 24.7257C19.3189 24.7257 19.125 24.5318 19.125 24.2926H17.4302C17.4302 25.4679 18.3829 26.4206 19.5581 26.4206V24.7257ZM19.125 24.2926V20.5374H17.4302V24.2926H19.125ZM19.125 20.5374C19.125 20.2982 19.3189 20.1043 19.5581 20.1043V18.4094C18.3829 18.4094 17.4302 19.3622 17.4302 20.5374H19.125Z" fill="#FFB119"/>
<path d="M5.75346 20.1043H9.50853V18.4094H5.75346V20.1043ZM9.50853 20.1043C9.74778 20.1043 9.94169 20.2982 9.94169 20.5374H11.6365C11.6365 19.3621 10.6838 18.4094 9.50853 18.4094V20.1043ZM9.94169 20.5374V24.2926H11.6365V20.5374H9.94169ZM9.94169 24.2926C9.94169 24.5318 9.74778 24.7257 9.50853 24.7257V26.4206C10.6838 26.4206 11.6365 25.4679 11.6365 24.2926H9.94169ZM9.50853 24.7257H5.75346V26.4206H9.50853V24.7257ZM5.75346 24.7257C5.51422 24.7257 5.32031 24.5318 5.32031 24.2926H3.6255C3.6255 25.4679 4.57824 26.4206 5.75346 26.4206V24.7257ZM5.32031 24.2926V20.5374H3.6255V24.2926H5.32031ZM5.32031 20.5374C5.32031 20.2982 5.51422 20.1043 5.75346 20.1043V18.4094C4.57824 18.4094 3.6255 19.3621 3.6255 20.5374H5.32031Z" fill="#FFB119"/>
</svg>
