<svg width="24" height="24" viewBox="0 0 24 24" fill="none" xmlns="http://www.w3.org/2000/svg">
<path fill-rule="evenodd" clip-rule="evenodd" d="M4.74235 14.6417L2.73254 12.6344C2.38517 12.2873 2.3847 11.7211 2.73182 11.3737L4.73899 9.36401C4.91267 9.19033 4.99996 8.97887 4.99972 8.73356L4.99804 5.8973C4.99779 5.40621 5.39812 5.00565 5.88899 5.00543L8.72523 5.00366C8.97078 5.00367 9.182 4.91591 9.35545 4.74223L11.3628 2.73252C11.7097 2.38516 12.2762 2.38472 12.6235 2.73186L14.6336 4.73938C14.8073 4.91283 15.0185 5.00014 15.264 5.00015L18.1058 4.99861C18.5969 4.99839 18.9977 5.39851 18.9979 5.88961L18.9996 8.73139C18.9996 8.97694 19.0874 9.18817 19.2611 9.36162L21.2675 11.3657C21.6148 11.7126 21.6153 12.279 21.2682 12.6264L19.2642 14.6326C19.0908 14.8063 19.0035 15.0178 19.0035 15.2631L19.0052 18.1033C19.0057 18.5941 18.6053 18.9949 18.1142 18.9951L15.2743 18.9967C15.0288 18.9969 14.8175 19.0844 14.6441 19.2583L12.6371 21.2676C12.29 21.6149 11.7238 21.6151 11.3765 21.2682L9.36688 19.2612C9.1932 19.0877 8.98197 19.0002 8.73642 19.0004L5.89742 19.0019C5.40655 19.0022 5.00574 18.6018 5.0055 18.1109L5.00381 15.2719C5.00358 15.0264 4.91604 14.8154 4.74235 14.6417Z" fill="#4C00C9"/>
<path d="M18.1142 18.9951L18.1145 19.4669H18.1147L18.1142 18.9951ZM5.07566 14.3079L3.06584 12.3006L2.39924 12.9682L4.40883 14.9755L5.07566 14.3079ZM3.06584 12.3006C2.90275 12.1378 2.90275 11.8701 3.0656 11.707L2.39804 11.0402C1.86688 11.5718 1.86736 12.437 2.39924 12.9682L3.06584 12.3006ZM3.0656 11.707L5.07277 9.69732L4.40521 9.03045L2.39804 11.0402L3.0656 11.707ZM5.07277 9.69732C5.3349 9.43519 5.47171 9.10373 5.47147 8.7331L4.52798 8.73377C4.52821 8.85401 4.49044 8.94546 4.40521 9.03045L5.07277 9.69732ZM5.47147 8.7331L5.46979 5.89708L4.52629 5.89752L4.52798 8.73377L5.47147 8.7331ZM5.46979 5.89708C5.46978 5.66651 5.65889 5.47717 5.88946 5.47694L5.88875 4.53344C5.13736 4.53389 4.52581 5.1459 4.52629 5.89752L5.46979 5.89708ZM5.88946 5.47694L8.72547 5.4754L8.72499 4.53191L5.88875 4.53344L5.88946 5.47694ZM8.72547 5.4754C9.0961 5.47518 9.42733 5.33791 9.68923 5.07555L9.02167 4.40891C8.93667 4.49414 8.84546 4.53191 8.72499 4.53191L8.72547 5.4754ZM9.68923 5.07555L11.6966 3.06583L11.0291 2.39919L9.02167 4.40891L9.68923 5.07555ZM11.6966 3.06583C11.8595 2.90275 12.1271 2.90276 12.2902 3.06562L12.9571 2.39809C12.4252 1.8669 11.5602 1.86734 11.0291 2.39919L11.6966 3.06583ZM12.2902 3.06562L14.3003 5.07314L14.9669 4.40561L12.9571 2.39809L12.2902 3.06562ZM14.3003 5.07314C14.5624 5.33505 14.8937 5.47211 15.2643 5.47189L15.2638 4.52839C15.1433 4.52839 15.0521 4.49061 14.9669 4.40561L14.3003 5.07314ZM15.2643 5.47189L18.1063 5.47035L18.1056 4.52686L15.2638 4.52839L15.2643 5.47189ZM18.1063 5.47035C18.3366 5.47013 18.526 5.65925 18.5262 5.88983L19.4697 5.88916C19.4692 5.13777 18.8572 4.52642 18.1056 4.52686L18.1063 5.47035ZM18.5262 5.88983L18.5279 8.73161L19.4714 8.73117L19.4697 5.88916L18.5262 5.88983ZM18.5279 8.73161C18.5281 9.10223 18.6654 9.43347 18.9278 9.69538L19.5944 9.02786C19.5092 8.94263 19.4714 8.85141 19.4714 8.73117L18.5279 8.73161ZM18.9278 9.69538L20.9342 11.6994L21.6008 11.0319L19.5944 9.02786L18.9278 9.69538ZM20.9342 11.6994C21.0972 11.8623 21.0973 12.13 20.9344 12.293L21.602 12.9599C22.1331 12.4281 22.1326 11.5629 21.6008 11.0319L20.9342 11.6994ZM20.9344 12.293L18.9305 14.2993L19.598 14.966L21.602 12.9597L20.9344 12.293ZM18.9305 14.2993C18.6686 14.5614 18.5315 14.8929 18.5318 15.2635L19.4752 15.2629C19.4752 15.1426 19.513 15.0512 19.598 14.966L18.9305 14.2993ZM18.5318 15.2635L18.5334 18.1035L19.4769 18.1028L19.4752 15.2629L18.5318 15.2635ZM18.5334 18.1035C18.5337 18.3338 18.3446 18.5234 18.114 18.5234L18.1147 19.4669C18.8661 19.4664 19.4774 18.8544 19.4769 18.1028L18.5334 18.1035ZM18.114 18.5234L15.2741 18.5249L15.2746 19.4684L18.1145 19.4669L18.114 18.5234ZM15.2741 18.5249C14.9034 18.5251 14.5722 18.6626 14.3103 18.9248L14.9779 19.5916C15.0629 19.5064 15.1543 19.4684 15.2746 19.4684L15.2741 18.5249ZM14.3103 18.9248L12.3034 20.934L12.9709 21.6009L14.9779 19.5916L14.3103 18.9248ZM12.3034 20.934C12.1405 21.0971 11.8729 21.0973 11.7098 20.9345L11.0429 21.602C11.5746 22.1332 12.4398 22.1325 12.9709 21.6009L12.3034 20.934ZM11.7098 20.9345L9.70019 18.9274L9.03359 19.5949L11.0429 21.602L11.7098 20.9345ZM9.70019 18.9274C9.43805 18.6655 9.10681 18.5284 8.73618 18.5287L8.73667 19.4722C8.85714 19.4719 8.94836 19.5097 9.03359 19.5949L9.70019 18.9274ZM8.73618 18.5287L5.89718 18.5302L5.89789 19.4737L8.73667 19.4722L8.73618 18.5287ZM5.89718 18.5302C5.66683 18.5302 5.47726 18.3411 5.47725 18.1105L4.53376 18.1112C4.53424 18.8625 5.14628 19.4741 5.89789 19.4737L5.89718 18.5302ZM5.47725 18.1105L5.47556 15.2717L4.53207 15.2721L4.53376 18.1112L5.47725 18.1105ZM5.47556 15.2717C5.47532 14.9011 5.3378 14.5698 5.07566 14.3079L4.40883 14.9755C4.49406 15.0607 4.53207 15.1519 4.53207 15.2721L5.47556 15.2717Z" fill="#4C00C9"/>
<path d="M15 10L11.9569 13.4799C11.3505 14.1734 10.3672 14.1734 9.76076 13.4799L9 12.6099" stroke="white" stroke-width="1.5" stroke-linecap="round" stroke-linejoin="round"/>
</svg>
