<svg width="40" height="40" viewBox="0 0 40 40" fill="none" xmlns="http://www.w3.org/2000/svg">
<path fill-rule="evenodd" clip-rule="evenodd" d="M5.48471 25.2834L1.46508 21.2688C0.770343 20.5745 0.769392 19.4421 1.46363 18.7474L5.47798 14.728C5.82533 14.3807 5.99992 13.9577 5.99945 13.4671L5.99608 7.79461C5.99559 6.81241 6.79625 6.01129 7.77798 6.01086L13.4505 6.00732C13.9416 6.00733 14.364 5.83182 14.7109 5.48447L18.7257 1.46503C19.4195 0.770327 20.5523 0.769436 21.2471 1.46372L25.2671 5.47876C25.6145 5.82567 26.037 6.00028 26.5281 6.00029L32.2116 5.99722C33.1938 5.99678 33.9954 6.79703 33.9959 7.77922L33.9993 13.4628C33.9993 13.9539 34.1748 14.3763 34.5222 14.7232L38.5349 18.7314C39.2296 19.4252 39.2306 20.558 38.5364 21.2527L34.5285 25.2653C34.1816 25.6126 34.007 26.0355 34.007 26.5262L34.0104 32.2065C34.0113 33.1882 33.2107 33.9898 32.2285 33.9903L26.5486 33.9933C26.0575 33.9938 25.6351 34.1688 25.2882 34.5166L21.2743 38.5352C20.58 39.2299 19.4477 39.2303 18.7529 38.5365L14.7338 34.5224C14.3864 34.1754 13.9639 34.0004 13.4728 34.0008L7.79484 34.0039C6.81311 34.0043 6.01149 33.2036 6.011 32.2219L6.00763 26.5439C6.00715 26.0528 5.83208 25.6308 5.48471 25.2834Z" fill="#4C00C9"/>
<path d="M32.2285 33.9903L32.229 34.9337H32.2294L32.2285 33.9903ZM6.15131 24.6159L2.13169 20.6013L0.798485 21.9363L4.81765 25.9509L6.15131 24.6159ZM2.13169 20.6013C1.80551 20.2756 1.8055 19.7402 2.1312 19.4141L0.79608 18.0803C-0.266243 19.1436 -0.265277 20.8739 0.798485 21.9363L2.13169 20.6013ZM2.1312 19.4141L6.14554 15.3946L4.81043 14.0609L0.79608 18.0803L2.1312 19.4141ZM6.14554 15.3946C6.66979 14.8704 6.94343 14.2075 6.94295 13.4662L5.05596 13.4675C5.05643 13.708 4.98088 13.8909 4.81043 14.0609L6.14554 15.3946ZM6.94295 13.4662L6.93957 7.79417L5.05259 7.79504L5.05596 13.4675L6.94295 13.4662ZM6.93957 7.79417C6.93956 7.33301 7.31778 6.95433 7.77893 6.95389L7.77749 5.06689C6.27472 5.06777 5.05162 6.2918 5.05259 7.79504L6.93957 7.79417ZM7.77893 6.95389L13.4509 6.95081L13.45 5.06381L7.77749 5.06689L7.77893 6.95389ZM13.4509 6.95081C14.1922 6.95037 14.8547 6.67581 15.3785 6.1511L14.0433 4.81782C13.8733 4.98827 13.6909 5.06382 13.45 5.06381L13.4509 6.95081ZM15.3785 6.1511L19.3933 2.13167L18.0581 0.798387L14.0433 4.81782L15.3785 6.1511ZM19.3933 2.13167C19.719 1.8055 20.2543 1.80552 20.5805 2.13124L21.9141 0.796185C20.8504 -0.266199 19.1205 -0.265324 18.0581 0.798387L19.3933 2.13167ZM20.5805 2.13124L24.6005 6.14627L25.9337 4.81122L21.9141 0.796185L20.5805 2.13124ZM24.6005 6.14627C25.1248 6.67009 25.7873 6.94422 26.5286 6.94378L26.5276 5.05679C26.2866 5.05678 26.1042 4.98122 25.9337 4.81122L24.6005 6.14627ZM26.5286 6.94378L32.2125 6.94071L32.2111 5.05371L26.5276 5.05679L26.5286 6.94378ZM32.2125 6.94071C32.6732 6.94026 33.0519 7.3185 33.0524 7.77965L34.9394 7.77832C34.9384 6.27554 33.7143 5.05283 32.2111 5.05371L32.2125 6.94071ZM33.0524 7.77965L33.0558 13.4632L34.9428 13.4623L34.9394 7.77832L33.0524 7.77965ZM33.0558 13.4632C33.0563 14.2045 33.3309 14.8669 33.8556 15.3908L35.1888 14.0557C35.0183 13.8853 34.9428 13.7028 34.9428 13.4623L33.0558 13.4632ZM33.8556 15.3908L37.8683 19.3989L39.2015 18.0638L35.1888 14.0557L33.8556 15.3908ZM37.8683 19.3989C38.1945 19.7246 38.1945 20.2599 37.8688 20.5861L39.2039 21.9198C40.2662 20.8561 40.2653 19.1258 39.2015 18.0638L37.8683 19.3989ZM37.8688 20.5861L33.8609 24.5986L35.196 25.9319L39.2039 21.9194L37.8688 20.5861ZM33.8609 24.5986C33.3371 25.1229 33.063 25.7858 33.0635 26.5271L34.9505 26.5257C34.9505 26.2852 35.026 26.1024 35.196 25.9319L33.8609 24.5986ZM33.0635 26.5271L33.0669 32.2069L34.9539 32.2056L34.9505 26.5257L33.0635 26.5271ZM33.0669 32.2069C33.0673 32.6676 32.6891 33.0468 32.228 33.0467L32.2294 34.9337C33.7322 34.9329 34.9548 33.7088 34.9539 32.2056L33.0669 32.2069ZM32.228 33.0467L26.5481 33.0498L26.5491 34.9368L32.229 34.9337L32.228 33.0467ZM26.5481 33.0498C25.8069 33.0503 25.1444 33.3253 24.6206 33.8495L25.9557 35.1833C26.1257 35.0128 26.3086 34.9368 26.5491 34.9368L26.5481 33.0498ZM24.6206 33.8495L20.6067 37.868L21.9419 39.2018L25.9557 35.1833L24.6206 33.8495ZM20.6067 37.868C20.281 38.1942 19.7457 38.1947 19.4195 37.8689L18.0859 39.204C19.1492 40.2664 20.8795 40.265 21.9419 39.2018L20.6067 37.868ZM19.4195 37.8689L15.4004 33.8548L14.0672 35.1899L18.0859 39.204L19.4195 37.8689ZM15.4004 33.8548C14.8761 33.331 14.2136 33.0569 13.4724 33.0573L13.4733 34.9443C13.7143 34.9439 13.8967 35.0194 14.0672 35.1899L15.4004 33.8548ZM13.4724 33.0573L7.79436 33.0604L7.79579 34.9474L13.4733 34.9443L13.4724 33.0573ZM7.79436 33.0604C7.33367 33.0604 6.95451 32.6821 6.9545 32.221L5.06751 32.2223C5.06847 33.7251 6.29256 34.9483 7.79579 34.9474L7.79436 33.0604ZM6.9545 32.221L6.95112 26.5434L5.06414 26.5443L5.06751 32.2223L6.9545 32.221ZM6.95112 26.5434C6.95064 25.8022 6.67559 25.1397 6.15131 24.6159L4.81765 25.9509C4.98811 26.1214 5.06413 26.3038 5.06414 26.5443L6.95112 26.5434Z" fill="#4C00C9"/>
</svg>
