<svg width="49" height="41" viewBox="0 0 49 41" fill="none" xmlns="http://www.w3.org/2000/svg">
<g clip-path="url(#clip0_4636_27339)">
<path d="M31.2119 32.59H17.9219V8.41455H31.2119V32.59Z" fill="#FF5F00"/>
<path d="M18.7739 20.5001C18.7739 15.5959 21.0423 11.2274 24.575 8.4123C21.9917 6.35372 18.7314 5.125 15.188 5.125C6.79978 5.125 0 12.0086 0 20.5001C0 28.9915 6.79978 35.875 15.188 35.875C18.7314 35.875 21.9917 34.6463 24.575 32.5877C21.0423 29.7726 18.7739 25.4041 18.7739 20.5001Z" fill="#EB001B"/>
<path d="M49.1463 20.5001C49.1463 28.9915 42.3465 35.875 33.9582 35.875C30.4149 35.875 27.1546 34.6463 24.5703 32.5877C28.1039 29.7726 30.3724 25.4041 30.3724 20.5001C30.3724 15.5959 28.1039 11.2274 24.5703 8.4123C27.1546 6.35372 30.4149 5.125 33.9582 5.125C42.3465 5.125 49.1463 12.0086 49.1463 20.5001Z" fill="#F79E1B"/>
</g>
<defs>
<clipPath id="clip0_4636_27339">
<rect width="49" height="41" fill="white"/>
</clipPath>
</defs>
</svg>
