<svg width="80" height="22" viewBox="0 0 80 22" fill="none" xmlns="http://www.w3.org/2000/svg">
<g clip-path="url(#clip0_4677_31584)">
<path d="M21.6949 0H0V22H21.6949V0Z" fill="#FF0032"/>
<path d="M14.2346 2.0625V3.09375H16.2685V6.875H17.6245V3.09375H19.6584V2.0625H14.2346ZM6.76549 2.06525L5.23464 5.28894L3.70311 2.06456H2.03125V6.875H3.20345V3.45125L4.7004 6.39787H5.7682L7.26515 3.45125V6.875H8.43803V2.06525H6.76549ZM18.4841 18.3136C18.462 18.4934 18.3811 18.6604 18.2543 18.788C18.1221 18.91 17.9597 18.9931 17.7845 19.0286C17.5291 19.0796 17.2691 19.1034 17.0089 19.0994C16.6984 19.0994 16.4231 19.0582 16.1912 18.9784C15.9753 18.9071 15.7892 18.7646 15.6624 18.5735C15.535 18.3824 15.4712 18.1053 15.4712 17.7506V17.2521C15.4712 16.8974 15.5357 16.6203 15.6618 16.4292C15.7879 16.2387 15.9662 16.1026 16.1906 16.0243C16.455 15.9389 16.7314 15.898 17.0089 15.9032C17.2691 15.8993 17.5291 15.9231 17.7845 15.9741C17.9797 16.0201 18.1377 16.1006 18.2543 16.2147C18.3777 16.3343 18.4543 16.4945 18.4841 16.6891H19.657C19.6245 16.2869 19.4896 15.9445 19.255 15.6702C19.0401 15.4192 18.7438 15.2357 18.3736 15.1243C18.0143 15.0164 17.5424 14.9593 17.0089 14.9593C16.4468 14.9593 15.9594 15.0411 15.5594 15.2027C15.1646 15.3569 14.8339 15.6437 14.6224 16.0153C14.4157 16.3749 14.3072 16.8554 14.2997 17.4446V17.4989L14.3621 17.501L14.2997 17.5037V17.5581C14.3072 18.1466 14.4157 18.6271 14.6224 18.9874C14.8387 19.3627 15.154 19.6364 15.5594 19.8C15.9594 19.9616 16.4475 20.0434 17.0089 20.0434C17.5424 20.0434 18.0143 19.9863 18.3736 19.8784C18.7438 19.7663 19.0401 19.5828 19.255 19.3325C19.4896 19.0582 19.6245 18.7158 19.6563 18.3136H18.4841Z" fill="white"/>
<path d="M40.0858 2.75C41.9881 2.75 43.3793 3.22025 44.26 4.16075C45.1563 5.08544 45.6044 6.39306 45.6044 8.08294C45.6044 9.78794 45.1563 11.1114 44.26 12.0519C43.3793 12.9931 41.9888 13.4633 40.0858 13.4633H33.1298V19.25H29.8281V2.75H40.0858ZM42.279 7.7715C42.279 7.05444 42.0749 6.47213 41.6661 6.02594C41.2573 5.57906 40.5813 5.35631 39.6383 5.35631H33.1298V10.8563H39.6383C40.5807 10.8563 41.2573 10.6411 41.6654 10.2108C42.0749 9.76388 42.279 9.18294 42.279 8.46519V7.7715ZM56.4993 2.75L63.6681 19.25H60.2254L58.4098 15.0171H49.7081L47.8925 19.25H44.7793L51.9719 2.75H56.4993ZM50.7691 12.5538H57.3481L54.0464 4.92594L50.7691 12.5538ZM60.8058 2.75H64.5786L70.38 10.0196L75.8274 2.75H79.1759L71.8891 12.3867V19.25H68.5874V12.3867L60.8058 2.75Z" fill="black"/>
</g>
<defs>
<clipPath id="clip0_4677_31584">
<rect width="80" height="22" fill="white"/>
</clipPath>
</defs>
</svg>
