<svg xmlns="http://www.w3.org/2000/svg" width="18" height="18" fill="none" viewBox="0 0 18 18">
  <path stroke="currentcolor" stroke-linecap="round" stroke-width="1.5"
    d="m7.5 8.156 1.595 1.62a1 1 0 0 0 1.425 0L13.5 6.75" />
  <path stroke="currentcolor" stroke-linecap="round" stroke-width="1.5"
    d="M.75 1.5h.782c1.073 0 1.964.82 2.041 1.878l.247 3.384m2.425 7.488h7.824a2.04 2.04 0 0 0 2.017-1.679l1.134-6.475c.216-1.238-.747-2.37-2.017-2.37H5.804c-1.184 0-2.121.992-2.042 2.16l.441 6.476a2.037 2.037 0 0 0 2.042 1.888Z" />
  <path stroke="currentcolor" stroke-linecap="round" stroke-width="3" d="M5.25 16.5h.02m10.46 0h.02" />
</svg>