<svg xmlns="http://www.w3.org/2000/svg" width="18" height="18" fill="none" viewBox="0 0 18 18"><path stroke="currentcolor" stroke-linecap="round" stroke-linejoin="round" stroke-width="1.5" d="M14.063 3.31c.479.205.914.505 1.28.884.367.378.658.827.856 1.321a4.185 4.185 0 0 1 0 3.118c-.198.494-.489.943-.856 1.321l-.76.785-2.71 2.797a4 4 0 0 1-5.746 0l-2.71-2.797-.76-.785A4.14 4.14 0 0 1 1.5 7.074a4.14 4.14 0 0 1 1.156-2.88A3.887 3.887 0 0 1 5.448 3c1.047 0 2.05.43 2.791 1.194a1.06 1.06 0 0 0 1.521 0 3.94 3.94 0 0 1 1.281-.884 3.841 3.841 0 0 1 3.022 0Z"/></svg>