<svg width="64" height="32" viewBox="0 0 64 32" fill="none" xmlns="http://www.w3.org/2000/svg">
<path d="M20.757 24.7944L23.7285 7.35649H28.4815L25.5078 24.7944H20.757ZM42.68 7.7324C41.7385 7.37912 40.2628 7 38.4202 7C33.7234 7 30.4153 9.36511 30.387 12.7548C30.3606 15.2605 32.7489 16.6584 34.5518 17.4924C36.402 18.3474 37.0239 18.8924 37.015 19.6555C37.0031 20.8245 35.5375 21.3582 34.1712 21.3582C32.269 21.3582 31.2583 21.0939 29.6973 20.4431L29.0846 20.166L28.4177 24.0696C29.5279 24.5566 31.5807 24.9781 33.7123 25C38.7087 25 41.9522 22.6619 41.9891 19.042C42.0068 17.0582 40.7406 15.5488 37.9983 14.3041C36.337 13.4974 35.3195 12.9591 35.3303 12.1423C35.3303 11.4175 36.1915 10.6424 38.0525 10.6424C39.6066 10.6183 40.7327 10.9572 41.61 11.3105L42.0358 11.5117L42.68 7.7324ZM54.9113 7.35622H51.2386C50.1009 7.35622 49.2493 7.66675 48.7497 8.80232L41.6908 24.7829H46.6819C46.6819 24.7829 47.4977 22.6343 47.6823 22.1624C48.2277 22.1624 53.0764 22.1699 53.7696 22.1699C53.9117 22.7804 54.3479 24.7829 54.3479 24.7829H58.7583L54.9113 7.35569V7.35622ZM49.084 18.6166C49.4772 17.6119 50.9779 13.7419 50.9779 13.7419C50.9499 13.7883 51.3681 12.7323 51.608 12.0775L51.9292 13.581C51.9292 13.581 52.8393 17.7435 53.0296 18.6163H49.084V18.6166ZM16.722 7.35622L12.0686 19.2481L11.5729 16.8315C10.7066 14.0457 8.00758 11.0275 4.99023 9.51645L9.24523 24.7666L14.2741 24.761L21.757 7.35604L16.722 7.35596" fill="#0E4595"/>
<path d="M7.72511 7.35547H0.0607515L0 7.71828C5.9628 9.1617 9.90815 12.6499 11.5463 16.8417L9.87973 8.8282C9.5921 7.72398 8.75762 7.39439 7.72529 7.35591" fill="#F2AE14"/>
</svg>
