<svg width="64" height="32" viewBox="0 0 64 32" fill="none" xmlns="http://www.w3.org/2000/svg">
<path d="M45.8335 15.1367V24.9997H51.3129V19.155H57.523C60.1348 19.1367 62.354 17.4655 63.1942 15.1367H45.8335Z" fill="#37A72E"/>
<path d="M45.1025 7.00879C45.4222 11.0362 49.2395 14.2234 53.8971 14.2234C53.9153 14.2234 63.4222 14.2234 63.4222 14.2234C63.4952 13.8581 63.5317 13.4745 63.5317 13.0818C63.5317 9.73938 60.8377 7.03619 57.5044 7.00879H45.1025Z" fill="url(#paint0_linear_1471_2778)"/>
<path d="M36.9935 14.1229C37.0575 14.0133 37.1579 13.9494 37.2858 13.9494C37.4684 13.9494 37.6054 14.0955 37.6145 14.2691V24.9083H43.094V7.00879H37.6145C36.9205 7.03619 36.1351 7.53847 35.8429 8.1686L31.4867 17.5202C31.4776 17.5567 31.4593 17.5932 31.441 17.6298C31.3771 17.7211 31.2675 17.785 31.1397 17.785C30.9388 17.785 30.7744 17.6206 30.7744 17.4197V7.00879H25.2949V24.9083H30.7744C31.4593 24.8718 32.2264 24.3695 32.5187 23.7485L36.9935 14.1503C36.9844 14.1412 36.9935 14.1321 36.9935 14.1229Z" fill="#37A72E"/>
<path d="M16.5388 14.4338L13.3333 24.9087H9.38811L6.19177 14.4246C6.16437 14.2603 6.01826 14.1324 5.83561 14.1324C5.6347 14.1324 5.47944 14.2968 5.47944 14.4886V24.8995H0V7H4.70319H6.10045C7.10501 7 8.16437 7.78539 8.45661 8.74429L11.1233 17.4657C11.2603 17.9041 11.4703 17.895 11.6073 17.4657L14.274 8.74429C14.5662 7.77626 15.6255 7 16.6301 7H18.0274H22.7306V24.8995H17.2511V14.4886C17.2511 14.4886 17.2511 14.4886 17.2511 14.4794C17.2511 14.2785 17.0867 14.1233 16.895 14.1233C16.7123 14.1324 16.5662 14.2603 16.5388 14.4338Z" fill="#37A72E"/>
<defs>
<linearGradient id="paint0_linear_1471_2778" x1="45.1048" y1="10.6161" x2="63.5306" y2="10.6161" gradientUnits="userSpaceOnUse">
<stop stop-color="#00A0E5"/>
<stop offset="1" stop-color="#0077C3"/>
</linearGradient>
</defs>
</svg>
