<svg width="28" height="28" viewBox="0 0 28 28" fill="none" xmlns="http://www.w3.org/2000/svg">
<path fill-rule="evenodd" d="M14.0337 27.836H13.9227C8.39659 27.836 5.16475 27.2795 2.91355 25.0729C0.596088 22.7092 0.0610352 19.5004 0.0610352 13.9958V13.8401C0.0610352 8.33555 0.596088 5.1037 2.91355 2.76305C5.18627 0.556587 8.39659 0 13.9244 0H14.0353C19.54 0 22.7717 0.556587 25.0429 2.76305C27.3603 5.1269 27.8954 8.33555 27.8954 13.8401V13.9958C27.8954 19.5021 27.3603 22.7324 25.0429 25.0729C22.7701 27.2795 19.5615 27.836 14.0337 27.836ZM24.3896 13.5081C24.4956 13.513 24.5818 13.6008 24.5818 13.7068H24.5801V14.1507C24.5801 14.2584 24.494 14.3461 24.388 14.3495C20.5834 14.4935 18.2697 14.9772 16.6482 16.5987C15.0283 18.2186 14.5446 20.5291 14.3989 24.3269C14.3939 24.4329 14.3061 24.5191 14.2001 24.5191H13.7546C13.6469 24.5191 13.5591 24.4329 13.5559 24.3269C13.4101 20.5291 12.9264 18.2186 11.3066 16.5987C9.68676 14.9788 7.37126 14.4935 3.56678 14.3495C3.46077 14.3445 3.37465 14.2567 3.37465 14.1507V13.7068C3.37465 13.5992 3.46077 13.5114 3.56678 13.5081C7.37126 13.364 9.68511 12.8803 11.3066 11.2588C12.9298 9.63566 13.4134 7.31685 13.5575 3.50573C13.5625 3.39973 13.6503 3.31361 13.7563 3.31361H14.2001C14.3078 3.31361 14.3956 3.39973 14.3989 3.50573C14.543 7.3185 15.0266 9.63566 16.6499 11.2588C18.2697 12.8787 20.5851 13.364 24.3896 13.5081Z" fill="#202022"/>
</svg>
